<svg xmlns="http://www.w3.org/2000/svg" xmlns:xlink="http://www.w3.org/1999/xlink" width="160" height="160" viewBox="0 0 160 160">
  <defs>
    <linearGradient id="a" x1="102.2314" y1="-0.894" x2="85.7234" y2="239.3877" gradientUnits="userSpaceOnUse">
      <stop offset="0" stop-color="#ffc546"/>
      <stop offset="0.9964" stop-color="#f36f56"/>
    </linearGradient>
    <clipPath id="b">
      <path d="M144.5732,42.405a14.4122,14.4122,0,0,0-6.37-5.2682c-17.0626-7.5364-32.7773,28.142-33.0349,37.2858s-2.962,11.2043-18.29,10.5249-11.6754,9.9383-11.727,15.3609,1.8128,10.6893-9.9609,11.8622-9.3471,5.3952-9.3471,5.3952,11.7194,25.6283,12.8785,19.189,6.3105-14.9391,23.1816-9.6588c7.2668,2.2742,19.4578,2.8013,24.6418-3.9913a14.6637,14.6637,0,0,0,2.8151-6.1688c.325-2.7773-.6309-5.4017-.6977-8.15-.1554-6.4039,6.7841-8.5575,11.2769-11.1849a44.4462,44.4462,0,0,0,6.7686-4.5787c4.2774-3.7055,5.0919-9.0362,3.7913-14.3375-.6237-2.5421-1.7331-5.4-1.4467-8.0619.3077-2.8591,2.1557-6.2522,3.28-8.9031a60.3175,60.3175,0,0,0,2.4894-6.29C146.0235,51.394,146.8353,46.2271,144.5732,42.405Z" fill="#d8dee8"/>
    </clipPath>
    <clipPath id="d">
      <path d="M114.1188,9.7556a14.4131,14.4131,0,0,0-7.98-2.1559c-18.6517.21-18.1734,39.1926-14.62,47.6215s1.9458,11.4247-12.2862,17.1564-6.5091,13.8822-4.31,18.839,6.0784,8.9778-4.1516,14.923S64.5,114.9223,64.5,114.9223s21.2839,18.47,19.6711,12.1295-.4455-16.2111,17.0972-18.3947c7.556-.9406,18.87-5.5114,20.7741-13.8413a14.6619,14.6619,0,0,0,.0066-6.7808c-.8548-2.6624-2.8121-4.6549-4.0113-7.1284-2.7945-5.7641,2.6293-10.5991,5.63-14.8517a44.4424,44.4424,0,0,0,4.2636-6.9715c2.3579-5.1445.8908-10.3337-2.4892-14.62-1.6208-2.0552-3.8146-4.197-4.6566-6.7381-.9044-2.73-.6281-6.5835-.7029-9.4621a60.3255,60.3255,0,0,0-.34-6.756C119.1628,17.3361,117.7612,12.2972,114.1188,9.7556Z" fill="url(#a)"/>
    </clipPath>
    <linearGradient id="e" x1="4448.9988" y1="36.0236" x2="4333.0777" y2="276.4655" gradientTransform="translate(-4351.1448)" gradientUnits="userSpaceOnUse">
      <stop offset="0.0036" stop-color="#d191c0"/>
      <stop offset="1" stop-color="#8172b4"/>
    </linearGradient>
    <linearGradient id="f" x1="71.8662" y1="50.9744" x2="80.4002" y2="50.9744" gradientUnits="userSpaceOnUse">
      <stop offset="0" stop-color="#f3723b"/>
      <stop offset="1" stop-color="#e54750"/>
    </linearGradient>
    <linearGradient id="g" x1="88.8517" y1="50.9744" x2="97.3857" y2="50.9744" xlink:href="#f"/>
    <linearGradient id="h" x1="105.8371" y1="50.9744" x2="114.3711" y2="50.9744" xlink:href="#f"/>
    <linearGradient id="i" x1="36.8795" y1="36.4668" x2="131.6999" y2="36.4668" xlink:href="#f"/>
    <linearGradient id="j" x1="122.8662" y1="53.8323" x2="131.3129" y2="53.8323" xlink:href="#f"/>
    <linearGradient id="k" x1="4405.3541" y1="107.2077" x2="4452.0544" y2="107.2077" gradientTransform="translate(-4351.1448)" xlink:href="#a"/>
    <linearGradient id="l" x1="4407.6933" y1="120.4611" x2="4452.8295" y2="120.4611" gradientTransform="translate(-4351.1448)" xlink:href="#a"/>
    <linearGradient id="m" x1="4406.6301" y1="75.3946" x2="4444.8566" y2="75.3946" gradientTransform="translate(-4351.1448)" xlink:href="#a"/>
    <linearGradient id="n" x1="4409.7109" y1="84.7021" x2="4442.8001" y2="84.7021" gradientTransform="translate(-4351.1448)" xlink:href="#a"/>
    <linearGradient id="o" x1="4410.6846" y1="71.0141" x2="4413.4022" y2="71.0141" gradientTransform="translate(-4351.1448)" xlink:href="#a"/>
    <linearGradient id="p" x1="4411.909" y1="65.8103" x2="4423.6437" y2="65.8103" gradientTransform="translate(-4351.1448)" xlink:href="#a"/>
    <linearGradient id="q" x1="4437.9998" y1="71.121" x2="4440.4525" y2="71.121" gradientTransform="translate(-4351.1448)" xlink:href="#a"/>
    <linearGradient id="r" x1="4426.1186" y1="65.8983" x2="4439.2986" y2="65.8983" gradientTransform="translate(-4351.1448)" xlink:href="#a"/>
    <linearGradient id="s" x1="16.6832" y1="91.4916" x2="36.1817" y2="91.4916" gradientUnits="userSpaceOnUse">
      <stop offset="0" stop-color="#321944"/>
      <stop offset="1" stop-color="#a13b77"/>
    </linearGradient>
    <linearGradient id="t" x1="61.4323" y1="89.2623" x2="26.4853" y2="93.6306" gradientUnits="userSpaceOnUse">
      <stop offset="0" stop-color="#d8dee8"/>
      <stop offset="1" stop-color="#fff"/>
    </linearGradient>
    <linearGradient id="u" x1="61.6449" y1="90.9629" x2="26.6979" y2="95.3312" xlink:href="#t"/>
    <linearGradient id="v" x1="22.5176" y1="118.9304" x2="58.6444" y2="118.9304" xlink:href="#f"/>
    <linearGradient id="w" x1="30.5412" y1="118.9304" x2="58.6444" y2="118.9304" xlink:href="#f"/>
    <linearGradient id="x" x1="22.7295" y1="118.8132" x2="38.0231" y2="118.8132" xlink:href="#s"/>
    <linearGradient id="y" x1="12.3594" y1="127.4007" x2="21.0165" y2="141.918" gradientTransform="matrix(1, 0, 0, 1, 0, 0)" xlink:href="#e"/>
    <linearGradient id="z" x1="13.6979" y1="126.6025" x2="22.355" y2="141.1198" gradientTransform="matrix(1, 0, 0, 1, 0, 0)" xlink:href="#e"/>
    <linearGradient id="aa" x1="27.4299" y1="133.2489" x2="51.803" y2="152.0282" gradientTransform="matrix(1, 0, 0, 1, 0, 0)" xlink:href="#e"/>
    <linearGradient id="ab" x1="27.0748" y1="119.2469" x2="41.2011" y2="119.2469" xlink:href="#s"/>
    <linearGradient id="ac" x1="27.7449" y1="132.8399" x2="52.1181" y2="151.6193" gradientTransform="matrix(1, 0, 0, 1, 0, 0)" xlink:href="#e"/>
    <linearGradient id="ad" x1="27.0748" y1="126.0058" x2="29.0601" y2="126.0058" xlink:href="#s"/>
    <linearGradient id="ae" x1="40.0199" y1="125.9137" x2="42.0052" y2="125.9137" xlink:href="#s"/>
    <linearGradient id="af" x1="112.0938" y1="18.9149" x2="92.732" y2="61.6307" gradientTransform="translate(-66.2199)" gradientUnits="userSpaceOnUse">
      <stop offset="0" stop-color="#9681bc"/>
      <stop offset="0.9964" stop-color="#6166ae"/>
    </linearGradient>
    <linearGradient id="ag" x1="20.6494" y1="37.6019" x2="54.3934" y2="37.6019" gradientTransform="matrix(1, 0, 0, 1, 0, 0)" xlink:href="#af"/>
    <linearGradient id="ah" x1="96.0884" y1="33.1551" x2="111.1304" y2="65.0865" xlink:href="#af"/>
    <linearGradient id="ai" x1="134.5102" y1="113.9959" x2="154.372" y2="113.9959" gradientTransform="matrix(-1, 0, 0, 1, 268.7448, 0)" gradientUnits="userSpaceOnUse">
      <stop offset="0" stop-color="#454c8d"/>
      <stop offset="0.9964" stop-color="#404278"/>
    </linearGradient>
    <linearGradient id="aj" x1="148.0634" y1="135.3315" x2="145.4705" y2="151.5652" gradientTransform="matrix(-1, 0, 0, 1, 268.7448, 0)" xlink:href="#s"/>
    <linearGradient id="ak" x1="134.5103" y1="113.9974" x2="154.3719" y2="113.9974" xlink:href="#ai"/>
    <linearGradient id="al" x1="145.5163" y1="122.5269" x2="162.4991" y2="122.5269" xlink:href="#ai"/>
    <linearGradient id="am" x1="99.2576" y1="87.8318" x2="137.5187" y2="87.8318" xlink:href="#f"/>
    <linearGradient id="an" x1="128.1269" y1="87.88" x2="135.3707" y2="87.88" xlink:href="#f"/>
    <linearGradient id="ao" x1="115.7595" y1="81.8156" x2="118.7736" y2="86.9061" xlink:href="#s"/>
    <linearGradient id="ap" x1="99.2576" y1="90.2081" x2="124.9866" y2="90.2081" xlink:href="#f"/>
    <linearGradient id="aq" x1="96.9688" y1="82.0308" x2="117.3093" y2="82.0308" xlink:href="#f"/>
    <linearGradient id="ar" x1="152.6918" y1="61.4116" x2="151.2638" y2="73.5869" gradientTransform="matrix(-1, 0, 0, 1, 268.7448, 0)" xlink:href="#s"/>
    <linearGradient id="as" x1="139.4148" y1="85.7154" x2="142.851" y2="85.7154" gradientTransform="matrix(-1, 0, 0, 1, 268.7448, 0)" xlink:href="#s"/>
    <linearGradient id="at" x1="151.4009" y1="63.0572" x2="150.0481" y2="66.4392" gradientTransform="matrix(-1, 0, 0, 1, 268.7448, 0)" xlink:href="#s"/>
    <linearGradient id="au" x1="319.116" y1="55.2278" x2="308.9525" y2="82.5089" gradientTransform="translate(-243.2891 51.602) rotate(3.4741)" xlink:href="#a"/>
    <linearGradient id="av" x1="317.1236" y1="76.8482" x2="315.6798" y2="61.8692" gradientTransform="translate(-243.2891 51.602) rotate(3.4741)" xlink:href="#a"/>
    <linearGradient id="aw" x1="304.7056" y1="74.8075" x2="305.0635" y2="50.2928" gradientTransform="translate(-243.2891 51.602) rotate(3.4741)" xlink:href="#a"/>
    <linearGradient id="ax" x1="309.0961" y1="75.0316" x2="309.4556" y2="50.4025" gradientTransform="translate(-243.2891 51.602) rotate(3.4741)" xlink:href="#a"/>
    <linearGradient id="ay" x1="314.3753" y1="75.1104" x2="314.7337" y2="50.5636" gradientTransform="translate(-243.2891 51.602) rotate(3.4741)" xlink:href="#a"/>
    <linearGradient id="az" x1="318.0145" y1="75.3648" x2="318.375" y2="50.6682" gradientTransform="translate(-243.2891 51.602) rotate(3.4741)" xlink:href="#a"/>
    <linearGradient id="ba" x1="321.6951" y1="75.8098" x2="322.0605" y2="50.7806" gradientTransform="translate(-243.2891 51.602) rotate(3.4741)" xlink:href="#a"/>
    <linearGradient id="bb" x1="325.43" y1="75.8179" x2="325.7938" y2="50.8967" gradientTransform="translate(-243.2891 51.602) rotate(3.4741)" xlink:href="#a"/>
    <linearGradient id="bc" x1="327.7407" y1="75.9315" x2="328.105" y2="50.9709" gradientTransform="translate(-243.2891 51.602) rotate(3.4741)" xlink:href="#a"/>
    <linearGradient id="bd" x1="301.352" y1="74.912" x2="301.7134" y2="50.1528" gradientTransform="translate(-243.2891 51.602) rotate(3.4741)" xlink:href="#a"/>
    <linearGradient id="be" x1="312.4039" y1="75.372" x2="312.7673" y2="50.4758" gradientTransform="translate(-243.2891 51.602) rotate(3.4741)" xlink:href="#a"/>
    <linearGradient id="bf" x1="315.1141" y1="58.375" x2="316.5917" y2="70.1957" gradientTransform="translate(-243.2891 51.602) rotate(3.4741)" gradientUnits="userSpaceOnUse">
      <stop offset="0" stop-color="#ac316e"/>
      <stop offset="1" stop-color="#7a2e3e"/>
    </linearGradient>
    <linearGradient id="bg" x1="315.8724" y1="61.8206" x2="316.9967" y2="70.8152" xlink:href="#bf"/>
    <linearGradient id="bh" x1="281.1374" y1="65.738" x2="389.0676" y2="72.8673" gradientTransform="translate(-243.2891 51.602) rotate(3.4741)" gradientUnits="userSpaceOnUse">
      <stop offset="0" stop-color="#8ed0be"/>
      <stop offset="1" stop-color="#26777b"/>
    </linearGradient>
    <linearGradient id="bi" x1="315.0822" y1="67.0329" x2="318.401" y2="89.896" gradientTransform="translate(-243.2891 51.602) rotate(3.4741)" xlink:href="#a"/>
    <linearGradient id="bj" x1="349.7653" y1="59.0631" x2="234.153" y2="89.2574" xlink:href="#bh"/>
    <linearGradient id="bk" x1="315.0839" y1="67.0907" x2="318.3886" y2="89.8567" gradientTransform="translate(-243.2891 51.602) rotate(3.4741)" xlink:href="#a"/>
  </defs>
  <g style="isolation: isolate">
    <g>
      <path d="M82.0493,5.5283C43.7931,4.3733,10.6551,32.7541,5.6485,69.9933c-5.474,40.7159,24.4482,78.9252,61.7253,83.2181,82.5179,9.5029,90.835-34.9231,86.8192-80.7271C151.1675,37.9751,120.9376,6.7024,82.0493,5.5283Z" fill="#f4f7fa"/>
      <g>
        <g>
          <path d="M144.5732,42.405a14.4122,14.4122,0,0,0-6.37-5.2682c-17.0626-7.5364-32.7773,28.142-33.0349,37.2858s-2.962,11.2043-18.29,10.5249-11.6754,9.9383-11.727,15.3609,1.8128,10.6893-9.9609,11.8622-9.3471,5.3952-9.3471,5.3952,11.7194,25.6283,12.8785,19.189,6.3105-14.9391,23.1816-9.6588c7.2668,2.2742,19.4578,2.8013,24.6418-3.9913a14.6637,14.6637,0,0,0,2.8151-6.1688c.325-2.7773-.6309-5.4017-.6977-8.15-.1554-6.4039,6.7841-8.5575,11.2769-11.1849a44.4462,44.4462,0,0,0,6.7686-4.5787c4.2774-3.7055,5.0919-9.0362,3.7913-14.3375-.6237-2.5421-1.7331-5.4-1.4467-8.0619.3077-2.8591,2.1557-6.2522,3.28-8.9031a60.3175,60.3175,0,0,0,2.4894-6.29C146.0235,51.394,146.8353,46.2271,144.5732,42.405Z" fill="#d8dee8"/>
          <g clip-path="url(#b)">
            <g opacity="0.8" style="mix-blend-mode: soft-light">
              <path d="M50.5588,127.6842a.2751.2751,0,0,1-.0371-.5477,132.7316,132.7316,0,0,0,20.51-4.942c10.2621-3.3452,24.2452-9.41,32.5829-19.3083,6.9635-8.2667,15.856-22.8745,24.3972-40.0778,7.659-15.4263,12.2358-27.2266,12.2358-29.7227a.2752.2752,0,1,1,.55,0c0,2.92-5.4,16.0832-12.2932,29.9674-8.56,17.241-17.4787,31.8887-24.4692,40.1876-8.4232,9.9993-22.5092,16.1125-32.8426,19.48a133.3018,133.3018,0,0,1-20.5964,4.9608A.2709.2709,0,0,1,50.5588,127.6842Z" fill="#fff"/>
              <path d="M126.8612,65.919a.247.247,0,0,1-.2752-.2378c-.0013-.2-.2135-20.1074-7.2047-27.0987a.2644.2644,0,0,1,0-.38.275.275,0,0,1,.389.0045c7.1511,7.151,7.36,26.641,7.366,27.4686a.2479.2479,0,0,1-.2733.2436Z" fill="#fff"/>
              <path d="M116.3557,85.1387a.2752.2752,0,0,1-.0928-.5342,87.2631,87.2631,0,0,1,13.4039-3.4122c9.6187-1.5886,16.207-.6285,19.5823,2.8538a.2752.2752,0,0,1-.3952.383c-7.7653-8.0116-32.16.6055-32.4054.6934A.2741.2741,0,0,1,116.3557,85.1387Z" fill="#fff"/>
              <path d="M80.4662,119.2405a.2753.2753,0,0,1-.26-.3643,104.931,104.931,0,0,0,3.88-16.1634c1.1713-7.7984,1.4641-17.9891-3.7925-22.2518a.2751.2751,0,1,1,.3466-.4273c4.3832,3.5544,5.7253,11.2147,3.9889,22.7681a105.5183,105.5183,0,0,1-3.9019,16.2526A.2753.2753,0,0,1,80.4662,119.2405Z" fill="#fff"/>
              <path d="M95.5409,110.9152a.2752.2752,0,0,1-.079-.5387c1.055-.3166,25.92-7.703,33.0932-3.5646a.2751.2751,0,1,1-.2749.4767c-6.97-4.0212-32.4041,3.5381-32.66,3.6148A.2736.2736,0,0,1,95.5409,110.9152Z" fill="#fff"/>
            </g>
          </g>
        </g>
        <g>
          <path d="M114.1188,9.7556a14.4131,14.4131,0,0,0-7.98-2.1559c-18.6517.21-18.1734,39.1926-14.62,47.6215s1.9458,11.4247-12.2862,17.1564-6.5091,13.8822-4.31,18.839,6.0784,8.9778-4.1516,14.923S64.5,114.9223,64.5,114.9223s21.2839,18.47,19.6711,12.1295-.4455-16.2111,17.0972-18.3947c7.556-.9406,18.87-5.5114,20.7741-13.8413a14.6619,14.6619,0,0,0,.0066-6.7808c-.8548-2.6624-2.8121-4.6549-4.0113-7.1284-2.7945-5.7641,2.6293-10.5991,5.63-14.8517a44.4424,44.4424,0,0,0,4.2636-6.9715c2.3579-5.1445.8908-10.3337-2.4892-14.62-1.6208-2.0552-3.8146-4.197-4.6566-6.7381-.9044-2.73-.6281-6.5835-.7029-9.4621a60.3255,60.3255,0,0,0-.34-6.756C119.1628,17.3361,117.7612,12.2972,114.1188,9.7556Z" fill="url(#a)"/>
          <g clip-path="url(#d)">
            <g opacity="0.8" style="mix-blend-mode: soft-light">
              <path d="M63.8815,126.3209a.2751.2751,0,0,1-.2606-.4831,132.7267,132.7267,0,0,0,16.62-12.9949c7.9542-7.2961,18.1681-18.6093,21.6561-31.072,2.9131-10.4088,4.9548-27.388,5.6016-46.5841.58-17.2132-.1432-29.8493-1.1773-32.1212a.2751.2751,0,0,1,.5008-.2279c1.21,2.6575,1.7484,16.8752,1.2264,32.3677-.6482,19.2381-2.6972,36.2645-5.6216,46.7138-3.5237,12.59-13.8115,23.99-21.8213,31.3359a133.3045,133.3045,0,0,1-16.6906,13.0478A.2637.2637,0,0,1,63.8815,126.3209Z" fill="#fff"/>
              <path d="M107.74,38.4947a.247.247,0,0,1-.3489-.1024c-.0842-.1819-8.5245-18.2123-17.7839-21.6791a.2644.2644,0,0,1-.1575-.346.2751.2751,0,0,1,.3559-.1571c9.4711,3.5459,17.7361,21.1979,18.084,21.9489a.2479.2479,0,0,1-.1479.3349Z" fill="#fff"/>
              <path d="M106.1407,60.34a.2752.2752,0,0,1-.3058-.4478,87.2462,87.2462,0,0,1,10.7859-8.6586c8.0963-5.4308,14.49-7.2864,19.005-5.5152a.2751.2751,0,1,1-.201.5122c-10.3866-4.0746-29.0194,13.8745-29.2064,14.0562A.2751.2751,0,0,1,106.1407,60.34Z" fill="#fff"/>
              <path d="M87.6037,106.2458a.2754.2754,0,0,1-.3878-.2238,104.942,104.942,0,0,0-3.1654-16.3182c-2.1647-7.5829-6.12-16.9793-12.67-18.6813a.2751.2751,0,1,1,.1384-.5325c5.4619,1.4191,9.8569,7.8352,13.0629,19.07a105.5083,105.5083,0,0,1,3.1819,16.4088A.2753.2753,0,0,1,87.6037,106.2458Z" fill="#fff"/>
              <path d="M97.8748,92.4233a.2752.2752,0,0,1-.2951-.4576c.8292-.7251,20.4-17.7492,28.6431-16.9542a.2751.2751,0,0,1-.0528.5477c-8.0094-.7723-28.0267,16.6447-28.228,16.8206A.2719.2719,0,0,1,97.8748,92.4233Z" fill="#fff"/>
            </g>
          </g>
        </g>
      </g>
      <g>
        <g>
          <g>
            <path d="M98.1835,21.7427q7.0864,59.8926,14.1728,118.535a3.0262,3.0262,0,0,1-2.6932,3.4474q-28.48,2.7016-56.96,5.5221c-3.3869.1644-5.2468-1.7282-5.4648-3.623Q39.9441,82.3193,32.65,17.6889c-.218-1.9352,1.4214-3.5985,4.8082-3.4332q28.62,2.0406,57.2408,4.0273A4.0024,4.0024,0,0,1,98.1835,21.7427Z" fill="#26274f"/>
            <path d="M100.8205,21.661q7.131,60.1536,14.262,119.0415a3.0428,3.0428,0,0,1-2.71,3.4633Q82.8,146.67,53.2265,149.2741a3.5078,3.5078,0,0,1-3.6722-3.169q-7.34-63.595-14.68-128.5312a2.7735,2.7735,0,0,1,2.896-3.3123q29.7719,1.986,59.5436,3.9243A4.0249,4.0249,0,0,1,100.8205,21.661Z" fill="#40403f"/>
            <path d="M99.675,28.2217q6.605,55.7319,13.21,110.3771a2.8328,2.8328,0,0,1-2.5325,3.23q-27.8118,2.2746-55.6236,4.6357a3.2812,3.2812,0,0,1-3.42-2.9593Q44.5221,84.7664,37.7355,24.88a2.6045,2.6045,0,0,1,2.695-3.1043q27.985,1.6293,55.97,3.2248A3.72,3.72,0,0,1,99.675,28.2217Z" fill="#f8aa95"/>
            <path d="M96.4005,25.0007q-27.6534-1.576-55.307-3.1864a42.2766,42.2766,0,0,0,3.239,10.4779C50.4477,45.5591,59.4313,46.29,62.9459,57.8509c3.621,11.9108-4.5451,15.6383-.5556,26.3922,4.3291,11.6692,14.9464,9.98,20.5581,22.7805,4.8369,11.0328-1.39,16.0761,3.6116,22.7806,5.482,7.3487,15.6234,4.8573,26.15,7.3462Q106.1926,83.214,99.675,28.2217A3.72,3.72,0,0,0,96.4005,25.0007Z" opacity="0.3" fill="url(#e)" style="mix-blend-mode: multiply"/>
          </g>
          <path d="M69.4728,20.1032a.9276.9276,0,0,1-.97,1.1054A1.4185,1.4185,0,0,1,67.26,19.9671a.9252.9252,0,0,1,.9709-1.1047A1.4194,1.4194,0,0,1,69.4728,20.1032Z" fill="#fff"/>
          <ellipse cx="76.1332" cy="50.9744" rx="4.267" ry="5.0341" fill="url(#f)"/>
          <ellipse cx="93.1187" cy="50.9744" rx="4.267" ry="5.0341" fill="url(#g)"/>
          <ellipse cx="84.5789" cy="50.9744" rx="4.3278" ry="5.0341" fill="#d8dee8"/>
          <ellipse cx="110.1041" cy="50.9744" rx="4.267" ry="5.0341" fill="url(#h)"/>
          <ellipse cx="101.5643" cy="50.9744" rx="4.3278" ry="5.0341" fill="#d8dee8"/>
          <ellipse cx="118.5498" cy="50.9744" rx="4.3278" ry="5.0341" fill="#d8dee8"/>
          <ellipse cx="67.5934" cy="50.9744" rx="4.3278" ry="5.0341" fill="#d8dee8"/>
          <polygon points="36.879 21.277 63.358 51.656 131.7 51.656 98.584 25.125 36.879 21.277" fill="url(#i)"/>
          <g>
            <polygon points="36.879 21.277 63.358 51.656 71.921 51.656 44.002 21.722 36.879 21.277" fill="#f4f7fa"/>
            <polygon points="51.65 22.198 80.36 51.656 88.818 51.656 59.354 22.679 51.65 22.198" fill="#f4f7fa"/>
            <polygon points="67.116 23.163 97.297 51.656 105.797 51.656 74.936 23.651 67.116 23.163" fill="#f4f7fa"/>
            <polygon points="90.756 24.637 82.816 24.142 114.317 51.656 122.858 51.656 90.756 24.637" fill="#f4f7fa"/>
          </g>
          <path d="M122.8662,51.6561c.2827,2.457,2.0633,4.3524,4.2234,4.3524s3.9406-1.8954,4.2233-4.3524Z" fill="url(#j)"/>
        </g>
        <g opacity="0.8">
          <g opacity="0.35" style="mix-blend-mode: multiply">
            <path d="M100.902,110.5761a1.9477,1.9477,0,0,1-1.8584,2.1472L57.8867,114.412a2.4327,2.4327,0,0,1-2.4779-2.0536l-1.18-8.857a1.9628,1.9628,0,0,1,1.9344-2.2608l41.7825-1.2383a2.2333,2.2333,0,0,1,2.24,2.05Z" fill="url(#k)"/>
            <path d="M101.6774,119.7921a1.9378,1.9378,0,0,1-1.84,2.1224L59.1311,123.92a2.3713,2.3713,0,0,1-2.4473-1.9929l-.117-.8778a1.9425,1.9425,0,0,1,1.8992-2.2112l40.9469-1.8372a2.1321,2.1321,0,0,1,2.1933,1.9452Z" fill="url(#l)"/>
          </g>
          <g opacity="0.3" style="mix-blend-mode: multiply">
            <path d="M92.8389,77.3242l-35.8163.2824A1.2244,1.2244,0,0,1,55.8,76.6l-.3069-2.395a.9146.9146,0,0,1,.9674-1.0225l36.0063.0009a1.0654,1.0654,0,0,1,1.0427.9532l.1985,2.2332A.8633.8633,0,0,1,92.8389,77.3242Z" fill="url(#m)"/>
            <path d="M58.5661,78.4885,63.1406,90.05a1.9383,1.9383,0,0,0,1.8508,1.1782L88.43,90.4619a1.4732,1.4732,0,0,0,1.4388-1.226l1.7864-11.0614ZM68.8446,89.2639a.7685.7685,0,0,1-.78.8463l-.8366.0258a.9521.9521,0,0,1-.979-.7959l-1.0641-8.9495a.7656.7656,0,0,1,.7931-.8505l.8479-.01a.9814.9814,0,0,1,.9844.826Zm4.6278-.1359a.7627.7627,0,0,1-.77.8391l-.8226.0254a.9339.9339,0,0,1-.9592-.79l-1.0114-8.874a.76.76,0,0,1,.7827-.8431l.8335-.01a.9625.9625,0,0,1,.9644.819Zm4.55-.1336a.757.757,0,0,1-.7607.832l-.8088.0249a.9161.9161,0,0,1-.94-.7832l-.96-8.8a.7539.7539,0,0,1,.7727-.8359l.8193-.0094a.9445.9445,0,0,1,.9451.8122Zm4.4745-.1313a.7514.7514,0,0,1-.7511.8249l-.7954.0246a.8993.8993,0,0,1-.9213-.7771l-.911-8.7269a.7482.7482,0,0,1,.7629-.8288l.8056-.0093a.927.927,0,0,1,.9261.8056Zm4.4007-.1292a.7458.7458,0,0,1-.7417.818l-.7823.0242a.8828.8828,0,0,1-.9032-.7709L83.6077,80.15a.7426.7426,0,0,1,.7532-.8218l.7922-.0092a.91.91,0,0,1,.9077.799Z" fill="url(#n)"/>
            <g>
              <g>
                <path d="M61.9035,71.9748a1.4357,1.4357,0,0,1-1.9179-.1273,1.2133,1.2133,0,0,1-.09-1.7956,1.4368,1.4368,0,0,1,1.9213.1339A1.2129,1.2129,0,0,1,61.9035,71.9748Z" fill="url(#o)"/>
                <path d="M72.3686,60.6114a.6183.6183,0,0,0-.8409.046L60.9923,70.2089a.5516.5516,0,0,0-.09.8069.6511.6511,0,0,0,.8659-.062l10.506-9.541A.5587.5587,0,0,0,72.3686,60.6114Z" fill="url(#p)"/>
              </g>
              <g>
                <path d="M87.3676,72.0309a1.2088,1.2088,0,0,0,1.71-.1129A1.2313,1.2313,0,0,0,88.8,70.2152a1.21,1.21,0,0,0-1.7138.1078A1.2315,1.2315,0,0,0,87.3676,72.0309Z" fill="url(#q)"/>
                <path d="M75.0448,60.6734c.16-.1992.538-.1613.8441.0844l11.9523,9.5956c.2876.2309.3963.5751.2432.7692s-.5106.1648-.7988-.0656L75.3107,61.4786C75.004,61.2333,74.8849,60.8726,75.0448,60.6734Z" fill="url(#r)"/>
              </g>
            </g>
          </g>
          <g>
            <path d="M101.6017,109.8764a1.9479,1.9479,0,0,1-1.8584,2.1473l-41.1569,1.6886a2.4328,2.4328,0,0,1-2.478-2.0536l-1.18-8.857a1.9628,1.9628,0,0,1,1.9344-2.2608l41.7824-1.2383a2.2331,2.2331,0,0,1,2.24,2.05Z" fill="#fff"/>
            <path d="M102.3771,119.0924a1.9377,1.9377,0,0,1-1.84,2.1224l-40.706,2.0058a2.371,2.371,0,0,1-2.4472-1.9929l-.117-.8777a1.9425,1.9425,0,0,1,1.8992-2.2113l40.9469-1.8371a2.1321,2.1321,0,0,1,2.1933,1.9452Z" fill="#fff"/>
          </g>
          <g>
            <path d="M93.32,76.8431l-35.8164.2825a1.2242,1.2242,0,0,1-1.2224-1.0066l-.307-2.3951a.9146.9146,0,0,1,.9674-1.0224l36.0064.0009a1.0656,1.0656,0,0,1,1.0427.9532l.1984,2.2331A.8632.8632,0,0,1,93.32,76.8431Z" fill="#fff"/>
            <path d="M59.0471,78.0075l4.5745,11.5619a1.9386,1.9386,0,0,0,1.8509,1.1782l23.4386-.7667a1.4732,1.4732,0,0,0,1.4388-1.226l1.7864-11.0614ZM69.3257,88.7828a.7687.7687,0,0,1-.7805.8464l-.8366.0258a.9521.9521,0,0,1-.979-.796L65.6656,79.91a.7654.7654,0,0,1,.793-.85l.8479-.01a.9813.9813,0,0,1,.9844.826Zm4.6277-.1358a.7627.7627,0,0,1-.77.8391l-.8225.0253a.9338.9338,0,0,1-.9593-.7895L70.39,79.8479a.76.76,0,0,1,.7827-.8432l.8335-.01a.9628.9628,0,0,1,.9645.8191Zm4.55-.1336a.7571.7571,0,0,1-.7607.832l-.8088.0249a.9162.9162,0,0,1-.94-.7832l-.96-8.8a.7539.7539,0,0,1,.7727-.8359l.8194-.0094a.9443.9443,0,0,1,.945.8122Zm4.4745-.1313a.7514.7514,0,0,1-.7511.8249l-.7954.0245a.8991.8991,0,0,1-.9213-.777l-.9109-8.7269a.7481.7481,0,0,1,.7628-.8288l.8056-.0093a.9269.9269,0,0,1,.9261.8055Zm4.4008-.1292a.746.746,0,0,1-.7418.818l-.7823.0242a.8828.8828,0,0,1-.9032-.7709l-.8629-8.6552a.7427.7427,0,0,1,.7532-.8219l.7922-.0091a.91.91,0,0,1,.9077.799Z" fill="#fff"/>
            <g>
              <g>
                <path d="M62.3845,71.4938a1.4357,1.4357,0,0,1-1.9179-.1273,1.2135,1.2135,0,0,1-.09-1.7957,1.4369,1.4369,0,0,1,1.9213.1339A1.2131,1.2131,0,0,1,62.3845,71.4938Z" fill="#fff"/>
                <path d="M72.85,60.13a.6182.6182,0,0,0-.8408.046L61.4733,69.7279a.5516.5516,0,0,0-.09.8069.651.651,0,0,0,.8659-.0621l10.506-9.5409A.5587.5587,0,0,0,72.85,60.13Z" fill="#fff"/>
              </g>
              <g>
                <path d="M87.8487,71.55a1.2088,1.2088,0,0,0,1.7094-.1129,1.2312,1.2312,0,0,0-.2767-1.7028,1.21,1.21,0,0,0-1.7137.1078A1.2314,1.2314,0,0,0,87.8487,71.55Z" fill="#fff"/>
                <path d="M75.5259,60.1923c.16-.1992.5379-.1612.844.0845l11.9523,9.5956c.2876.2309.3964.5751.2433.7691s-.5107.1649-.7988-.0656l-11.975-9.5784C75.4851,60.7523,75.3659,60.3916,75.5259,60.1923Z" fill="#fff"/>
              </g>
            </g>
          </g>
        </g>
      </g>
      <g>
        <path d="M35.3388,101.4809a.842.842,0,0,1-.8356-.75l-1.5148-13.81-.7832.386a.8417.8417,0,0,1-1.2138-.755v-.3977l-.5783.2522a.8384.8384,0,0,1-.55.0427L17.3117,83.1581a.8416.8416,0,1,1,.4268-1.6282l12.2691,3.2172,1.489-.65a.8414.8414,0,0,1,1.1781.7714v.33l.6474-.3188a.8418.8418,0,0,1,1.2088.6631l1.6457,15.0038a.8418.8418,0,0,1-.7449.9284A.8578.8578,0,0,1,35.3388,101.4809Z" fill="url(#s)"/>
        <g>
          <path d="M59.7879,92.3005c0,2.0858-8.5741,2.1587-19.1509,2.1587s-19.1509-.0729-19.1509-2.1587S30.06,88.5239,40.637,88.5239,59.7879,90.2148,59.7879,92.3005Z" fill="url(#t)"/>
          <path d="M21.5022,92.3005s-.8907,2.4438-.8907,2.4794,39.9391,0,39.9391,0l-.7482-2.4794Z" fill="url(#u)"/>
        </g>
        <path d="M60.5449,94.7978c0,2.1743-8.9381,3.9368-19.9638,3.9368s-19.964-1.7625-19.964-3.9368,8.9382-3.9369,19.964-3.9369S60.5449,92.6235,60.5449,94.7978Z" fill="#d8dee8"/>
        <path d="M58.6332,94.8156c0-1.85-8.0822-3.3491-18.0521-3.3491s-18.0522,1.4994-18.0522,3.3491h-.0113l3.67,47.3033c0,2.3612,6.4443,4.2753,14.3938,4.2753s14.3937-1.9141,14.3937-4.2753l3.67-47.3033Z" fill="url(#v)"/>
        <g opacity="0.3" style="mix-blend-mode: multiply">
          <path d="M58.6332,94.8156c0-1.85-8.0822-3.3491-18.0521-3.3491a84.8647,84.8647,0,0,0-9.4417.4941,11.2919,11.2919,0,0,0-.5859,4.1019c.3979,8.2256,10.2141,10.9725,13.61,18.74,2.07,4.735,2.15,19.0715-5.6545,31.5472q1.0151.0437,2.0722.0441c7.9494,0,14.3937-1.9141,14.3937-4.2753l3.67-47.3033Z" fill="url(#w)"/>
        </g>
      </g>
      <g>
        <path d="M37.6674,125.3684a.3551.3551,0,0,1-.3531-.3215,18.8275,18.8275,0,0,0-2.9959-8.7306c-1.436-2.0968-3.1455-3.348-4.5739-3.348H29.74c-5.2025.01-6.2908,11.9546-6.3012,12.0753a.3552.3552,0,1,1-.7077-.0608c.0445-.5191,1.1584-12.7134,7.0075-12.7248h.0062c1.6877,0,3.5679,1.3324,5.16,3.6569a19.5492,19.5492,0,0,1,3.117,9.0646.3552.3552,0,0,1-.32.3873Z" fill="url(#x)"/>
        <path d="M15.9937,149.9511l6.8485,3.4673,4.15-12.7335-6.8372-17.0711-1.9388.4754-2.9416,24.5171A1.33,1.33,0,0,0,15.9937,149.9511Z" fill="url(#y)"/>
        <path d="M26.9917,140.6849l-6.8372-17.0711-1.1436.28a37.1831,37.1831,0,0,0,.0189,5.5209c.4583,5.8122,1.98,7.43,1.2431,11.4843-.6132,3.3714-1.9522,3.829-1.8351,6.0972.1275,2.47,1.8505,4.5391,3.8991,6.1659l.5053.2559Z" opacity="0.3" fill="url(#z)" style="mix-blend-mode: multiply"/>
        <polygon points="20.154 123.614 45.69 123.614 54.141 150.896 22.842 153.418 20.154 123.614" fill="url(#aa)"/>
        <path d="M28.065,125.9522a.3554.3554,0,0,1-.3455-.2742c-.0726-.3094-1.75-7.62.6153-11.2075a4.1212,4.1212,0,0,1,2.8154-1.866c6.1152-1.0776,9.88,12.0567,10.0376,12.6164a.3552.3552,0,1,1-.6839.1921c-.0368-.1307-3.743-13.0778-9.23-12.1089a3.392,3.392,0,0,0-2.3458,1.5574c-2.1989,3.335-.5338,10.5815-.5167,10.6544a.3553.3553,0,0,1-.3461.4363Z" fill="url(#ab)"/>
        <g opacity="0.3" style="mix-blend-mode: multiply">
          <path d="M45.69,123.6138H33.022a3.439,3.439,0,0,0-1.1106,2.1895c-.199,3.86,8.6749,5.1282,9.5307,10.4187.6174,3.8164-3.1814,8.22-6.5708,10.1819-3.5711,2.067-5.9908,1.02-8.406,3.315a7.919,7.919,0,0,0-2.0917,3.5761l29.7673-2.3986Z" fill="url(#ac)"/>
        </g>
        <circle cx="28.0675" cy="126.0058" r="0.9926" fill="url(#ad)"/>
        <circle cx="41.0126" cy="125.9137" r="0.9926" fill="url(#ae)"/>
      </g>
      <g>
        <g>
          <path d="M53.2971,39.7163A17.3244,17.3244,0,0,1,35.3743,57.3837,20.2849,20.2849,0,0,1,16.1084,37.2092,17.2761,17.2761,0,0,1,35.3743,19.6323,20.4175,20.4175,0,0,1,53.2971,39.7163Z" fill="#40403f"/>
          <path d="M56.0143,38.8488A17.3245,17.3245,0,0,1,38.0914,56.5162,20.285,20.285,0,0,1,18.8255,36.3416,17.276,17.276,0,0,1,38.0914,18.7648,20.4174,20.4174,0,0,1,56.0143,38.8488Z" fill="url(#af)"/>
          <path d="M55.225,38.7955A16.5327,16.5327,0,0,1,38.0914,55.6563,19.3621,19.3621,0,0,1,19.7345,36.4029,16.4884,16.4884,0,0,1,38.0914,19.6247,19.4828,19.4828,0,0,1,55.225,38.7955Z" fill="#fff" style="mix-blend-mode: soft-light"/>
          <path d="M54.3934,38.74a15.7334,15.7334,0,0,1-14.221,15.97,16.4417,16.4417,0,0,1-2.089.0618,18.4125,18.4125,0,0,1-17.434-18.3063,15.67,15.67,0,0,1,13.8169-15.93,16.55,16.55,0,0,1,3.6171-.0261A18.5228,18.5228,0,0,1,54.3934,38.74Z" fill="url(#ag)"/>
          <path d="M40.1724,54.71a16.4417,16.4417,0,0,1-2.089.0618,18.4125,18.4125,0,0,1-17.434-18.3063,15.67,15.67,0,0,1,13.8169-15.93c2.6357,2.0581,4.9955,4.6913,5.4018,7.8116.6631,5.0858-4.4179,7.4266-4.9787,12.9544C34.4284,45.8619,36.6124,50.9429,40.1724,54.71Z" opacity="0.6" fill="url(#ah)" style="mix-blend-mode: multiply"/>
        </g>
        <path d="M29.277,33.6551c0,2.9152,3.3942,9.8488,5.7915,14.3838a2.6366,2.6366,0,0,0,4.6323.2189c2.4169-4.3316,5.862-11.0236,5.862-13.9665a8.5581,8.5581,0,0,0-8.1812-8.5037A7.7922,7.7922,0,0,0,29.277,33.6551Zm3.7437.1462a4.1833,4.1833,0,0,1,4.3609-4.2238,4.5957,4.5957,0,0,1,4.383,4.5654,4.1824,4.1824,0,0,1-4.383,4.2229A4.5972,4.5972,0,0,1,33.0207,33.8013Z" fill="#fff"/>
      </g>
      <g>
        <path d="M117.2765,97.6447c3.6627-1.7888,10.807,4.69,14.2837,10.8964,1.3855,2.473,3.0121,5.3766,2.613,8.8284-.7075,6.12-7.4961,11.4876-16.84,13.28q-.3945-1.4093-.7892-2.8184c1.0217-1.064,2.5495-2.6,4.5021-4.36,2.9993-2.7036,3.6157-2.8838,3.76-3.7374.4712-2.7959-6.7188-5.1365-9.2762-10.0524C113.3308,105.4541,114.4627,99.0189,117.2765,97.6447Z" fill="url(#ai)"/>
        <path d="M122.0886,146.83s-.6014,1.4835-.3023,2.0645c.3139.61,1.2215.4285,3.7765.5245,2.6169.0983,3.2088.3083,3.3133.0455.209-.5253-1.8242-2.1935-4.2026-2.6345A7.2282,7.2282,0,0,0,122.0886,146.83Z" fill="#40403f"/>
        <path d="M122.6274,144.6126,124.05,146.83a1.9869,1.9869,0,0,1-1.77.4061l-1.565-2.101Z" fill="url(#aj)"/>
        <path d="M115.53,109.6807c-2.1987-4.2266-1.0668-10.6618,1.747-12.036a3.7387,3.7387,0,0,1,2.58-.1395,4.9467,4.9467,0,0,0-.1561,3.2695c1.1148,3.3412,5.9346,2.9611,7.44,6.764.9519,2.4041-.5618,3.5971.7892,5.524,1.4,1.997,3.6894,1.6622,4.3966,3.6075.5269,1.4494-.5122,2.2737-.1127,3.4947a2.297,2.297,0,0,0,.6994,1.0064c-2.4763,4.4535-8.2385,8.07-15.58,9.4779q-.3945-1.4093-.7892-2.8184c1.0217-1.064,2.5495-2.6,4.5021-4.36,2.9993-2.7036,3.6157-2.8838,3.76-3.7374C125.2768,116.9372,118.0869,114.5966,115.53,109.6807Z" opacity="0.3" fill="url(#ak)" style="mix-blend-mode: multiply"/>
        <path d="M119.7759,98.971c-.1585,6.4054-.07,13.3313.3942,20.7043a236.6083,236.6083,0,0,0,3.0584,25.8323l-1.8076.5752c-6.1973-6.0382-8.0517-11.35-8.5594-15.1705-.3589-2.7009.1842-2.933-.3-6.3133-.9224-6.4372-3.3287-8.6418-5.0184-14.6681a35.8763,35.8763,0,0,1-1.2952-10.1332Z" fill="url(#al)"/>
        <path d="M124.2151,87.4975c-.1125.0258-.601.1883-.7942,2.2293-.4658,4.9212,2.0965,6.9136,1.4655,9.5824-.6055,2.5616-3.6941,3.8045-6.8731,5.0837-2.1245.855-8.6953,3.499-12.5166.5258-1.6082-1.2513-1.7842-2.762-2.9316-8.3151C99.65,82.4944,98.5208,81.2822,99.7468,78.2279c2.1054-5.2451,7.7426-7.4172,8.6805-7.7786,10.0008-3.8536,21.8108,3.2289,26.4776,11.3655.6145,1.0714,4.2843,7.47,1.7059,10.5049-1.56,1.836-5.1446,2.1324-7.51.88C125.94,91.5273,125.2682,87.2561,124.2151,87.4975Z" fill="url(#am)"/>
        <path d="M135.1455,91.23a.2259.2259,0,0,0,.205-.3191,13.1768,13.1768,0,0,0-6.9207-6.3664.2253.2253,0,1,0-.1549.4232,12.96,12.96,0,0,1,6.6651,6.13A.2256.2256,0,0,0,135.1455,91.23Z" fill="url(#an)"/>
        <path d="M116.4166,86.1693a2.5687,2.5687,0,0,1,1.4066-2.06c.5839-.224,1.61-.29,2.0094.3516a1.1628,1.1628,0,0,1-.1,1.3564c-.4165.3968-.96-.0749-1.708.2511-.9.3919-1.0456,1.4789-1.3563,1.4066C116.4234,87.4186,116.3469,86.7071,116.4166,86.1693Z" fill="url(#ao)"/>
        <path d="M106.2853,76.4242c.6312,1.7183-1.2627,3.2073-.4509,5.073,1.1635,2.6739,5.7873,1.3015,7.44,3.9457,1.9593,3.1339-2.5273,8.274-.6763,10.0333.8434.8017,1.818-.2251,4.2838.3382,3.5119.8022,4.5671,3.5773,6.2,3.1566.5137-.1324,1.1364-.5987,1.66-2.0344a4.5332,4.5332,0,0,1,.1433,2.3726c-.6055,2.5616-3.6941,3.8045-6.8732,5.0837-2.1245.855-8.6952,3.499-12.5165.5258-1.6082-1.2513-1.7842-2.762-2.9316-8.3151C99.65,82.4944,98.5208,81.2822,99.7468,78.2279a11.9529,11.9529,0,0,1,2.8105-4.1062C104.9659,74.6537,105.955,75.5246,106.2853,76.4242Z" opacity="0.3" fill="url(#ap)" style="mix-blend-mode: multiply"/>
        <path d="M116.3434,84.8449c-.27.2454-3.2955,3.4948-6.5866,2.672a7.05,7.05,0,0,1-4.9344-5.8483c-.7331-5.5766,6.5323-10.2575,5.6367-11.3861-.5267-.6637-3.332.568-5.2985,1.8037-1.6125,1.0133-8.3693,5.2593-8.1882,12.3783.0184.7225.1348,5.3006,3.1648,7.5855,4.092,3.0858,10.416,3.0034,17.1721-4.4559C116.9352,86.529,116.7176,85.91,116.3434,84.8449Z" fill="url(#aq)"/>
        <g>
          <path d="M131.1148,78.0123l-3.2575,10.4059a.8429.8429,0,0,1-.7746.5905l-4.26.6192a.8427.8427,0,0,1-.8534-1.0209l2.8723-10.6512a.8427.8427,0,0,1,.7975-.6637l4.6447-.374A.8428.8428,0,0,1,131.1148,78.0123Z" fill="#40403f"/>
          <path d="M130.9586,78.3544l-3.1617,10.0994a.8177.8177,0,0,1-.7516.5731l-3.7433.601a.8179.8179,0,0,1-.8282-.9909l2.8055-10.3434a.818.818,0,0,1,.774-.6441l4.0992-.357A.8179.8179,0,0,1,130.9586,78.3544Z" fill="#40403f"/>
          <path d="M122.4738,88.637l2.68-9.8821a3.5721,3.5721,0,0,1,.7561.4815,4.06,4.06,0,0,1,1.3119,3.8554c-.4444,1.6718-2.15,1.7235-2.3862,3.1145-.1846,1.089.6985,2.2415,1.428,2.946l-2.9619.4756A.818.818,0,0,1,122.4738,88.637Z" fill="#40403f" opacity="0.3" style="mix-blend-mode: multiply"/>
        </g>
        <path d="M118.7363,69.4466a1.1977,1.1977,0,0,0,.8682,1.4934,10.9089,10.9089,0,0,1,2.1976.7014c.7733.4425-2.3553-.0686-5.2331-.1361a23.811,23.811,0,0,1-3.8943-.3894.2.2,0,0,1-.0222-.3859,17.105,17.105,0,0,1,2.8764-.7026c1.2233-.1538,2.5351-2.8532,2.5351-2.8532l1.0483.9523Z" fill="url(#ar)"/>
        <path d="M129.1492,85.4267l-.1989-.3254a1.3924,1.3924,0,0,0-1.518-1.031l-1.0453.1289a.5623.5623,0,0,0-.4811.6741c.0972.4666.3475,1.0247.99.9814,1.091-.0736,1.7884,1.5163,1.7884,1.5163l.4187-.59A1.2307,1.2307,0,0,0,129.1492,85.4267Z" fill="url(#as)"/>
        <path d="M121.0727,68.0632c.9042-.134,1.9169-.894,1.8972-1.522-.027-.8632-2-1.3359-2.9964-1.5746-.9994-.2393-1.4232-.1527-1.7093.065a1.63,1.63,0,0,0-.5471.9643,4.2472,4.2472,0,0,0-.004.9579c.0285.4555.02.4355.032.57a5.9082,5.9082,0,0,0,.4315,1.6794,4.1226,4.1226,0,0,1,.5244-.4851,3.6346,3.6346,0,0,1,.798-.47A5,5,0,0,1,121.0727,68.0632Z" fill="#40403f"/>
        <path d="M117.6956,68.3252a2.23,2.23,0,0,0,1.2454,1.8124c1.0627.4952,2.473-1.7235,2.085-2.5707a1.4766,1.4766,0,0,0-.941-.6853c-.2425-.0562-.3616-.0078-.7562-.1073-.3638-.0919-.4346-.1766-.5751-.1483-.1758.0354-.4.2354-.5673,1.0181-.0872-.3054-.2806-.51-.49-.5227a.3989.3989,0,0,0-.2095.0582C117.1994,67.3639,117.2556,67.831,117.6956,68.3252Z" fill="url(#at)"/>
      </g>
      <g>
        <circle cx="127.5641" cy="74.9666" r="0.8814" fill="#fff"/>
        <path d="M127.5641,67.5791a7.3574,7.3574,0,0,0-4.819,1.7886.6007.6007,0,0,0-.0367.8808l.0249.0249a.5963.5963,0,0,0,.8105.0327,6.1506,6.1506,0,0,1,8.0406,0,.5963.5963,0,0,0,.8105-.0327l.0248-.0249a.6006.6006,0,0,0-.0367-.8808A7.3571,7.3571,0,0,0,127.5641,67.5791Z" fill="#fff"/>
        <path d="M127.5641,69.6312a5.31,5.31,0,0,0-3.3563,1.1893.5975.5975,0,0,0-.042.8854l.0043.0043a.6026.6026,0,0,0,.8063.0368,4.127,4.127,0,0,1,5.1753,0,.6026.6026,0,0,0,.8063-.0368l.0043-.0043a.5974.5974,0,0,0-.042-.8854A5.3094,5.3094,0,0,0,127.5641,69.6312Z" fill="#fff"/>
        <path d="M125.6338,73.174a.6425.6425,0,0,0,.8093.0735,2.0532,2.0532,0,0,1,2.2419,0,.6425.6425,0,0,0,.8093-.0735l.0028-.0029a.5994.5994,0,0,0-.0864-.9189,3.2814,3.2814,0,0,0-3.6932,0,.5994.5994,0,0,0-.0865.9189Z" fill="#fff"/>
      </g>
      <g>
        <path d="M50.9785,138.8714c-3.4714-1.4057-4.7475-2.4452-5.2129-3.8393-1.337-4.0052,4.3651-9.8763,9.8707-12.5249,5.0614-2.435,9.693-2.02,16.1832-1.4377,6.2795.5631,10.7747.9662,14.5962,4.4194,2.8681,2.5917,5.9287,7.4181,4.42,10.73-.8552,1.8774-2.94,2.745-7.7384,3.77C64.2764,144.0069,53.3773,139.8428,50.9785,138.8714Z" fill="url(#au)"/>
        <path d="M59.0887,131.69c-9.2911.2089-11.5372,2.9059-11.5068,5.496a19.0632,19.0632,0,0,0,3.3966,1.6853c2.3988.9714,13.2979,5.1355,32.1188,1.1172a27.2494,27.2494,0,0,0,5.1626-1.48C92.2962,128.84,74.9292,131.3341,59.0887,131.69Z" fill="url(#av)"/>
        <path d="M58.3722,122.6621c-.9452.1877-2.2756.7655-2.2,1.2558.0693.4514,1.3381.8841,2.2973.49.8486-.3483,1.4264-1.3317,1.1976-1.6859C59.4849,122.441,58.8069,122.5757,58.3722,122.6621Z" fill="url(#aw)"/>
        <path d="M62.726,121.7481c-.7172.046-1.6852.4289-1.6773.92.0067.4067.6819.8454,1.2876.8276.9174-.0268,1.6275-1.0991,1.4286-1.5052C63.618,121.6909,62.9649,121.7328,62.726,121.7481Z" fill="url(#ax)"/>
        <path d="M67.534,121.2749c-.42.0033-1.8686.0145-1.9256.3748-.0524.3309,1.0667.9737,2.2.985,1.0827.0108,2.1735-.5552,2.1251-.89C69.8766,121.3529,68.2557,121.2693,67.534,121.2749Z" fill="url(#ay)"/>
        <path d="M71.4958,121.988c-.4816-.0924-.8785.4282-.8062.6233.1008.2717,1.24.2589,1.3455-.05C72.0968,122.3808,71.8242,122.0509,71.4958,121.988Z" fill="url(#az)"/>
        <path d="M75.8542,122.0861c-.8822-.71-2.2333-.2175-2.3163.2227-.1216.6446,2.3205,2.0015,2.8571,1.5137C76.7017,123.5437,76.4724,122.5835,75.8542,122.0861Z" fill="url(#ba)"/>
        <path d="M78.64,122.7472a.6053.6053,0,0,0-.521.6046c.052.46.9925.7136,1.1806.4953S79.1015,122.7322,78.64,122.7472Z" fill="url(#bb)"/>
        <path d="M81.33,122.957c-.4431-.2286-.9595.0582-.9854.286-.04.3547,1.0655.9422,1.3283.7083C81.844,123.7993,81.7828,123.1906,81.33,122.957Z" fill="url(#bc)"/>
        <path d="M53.9939,123.8993c-.0266-.2876.7564-.6936,1.0043-.4884a.5724.5724,0,0,1-.13.799A.63.63,0,0,1,53.9939,123.8993Z" fill="url(#bd)"/>
        <path d="M65.3325,123.5269a.6792.6792,0,0,0-.3359.8627.8668.8668,0,0,0,1.2495.097C66.3859,124.1908,65.7622,123.4042,65.3325,123.5269Z" fill="url(#be)"/>
        <path d="M52.0244,141.631c-1.3359-.3727-3.371-.9991-3.6-2.2348-.3449-1.8621,3.554-4.333,6.9254-5.4857,3.3831-1.1567,4.5347-.4044,12.97-.8,2.5523-.12,4.0951-.2659,8.186-.4105,3.9689-.14,6.6422-.1484,9.2661,1.4.8322.4912,2.322,1.3961,2.4184,2.7135.1144,1.5635-1.7979,2.8361-2.71,3.4274C78.08,145.0366,62.8717,144.6575,52.0244,141.631Z" fill="url(#bf)"/>
        <path d="M52.93,141.6873c-1.3063-.2913-3.2972-.7768-3.54-1.6592-.3656-1.33,3.39-3.0076,6.653-3.76,3.2745-.7546,4.4076-.1972,12.6129-.3107,2.4827-.0343,3.9822-.1075,7.9624-.129,3.8616-.0209,6.4641.0264,9.0435,1.1788.818.3655,2.283,1.038,2.398,1.9759.1365,1.1132-1.7049,1.9794-2.5839,2.3813C78.3478,144.6248,63.5368,144.0531,52.93,141.6873Z" opacity="0.3" fill="url(#bg)" style="mix-blend-mode: multiply"/>
        <path d="M67.28,140.8005c-.0384-.85,1.869-1.62,2.5813-1.8489,2.1346-.6872,2.8089.4908,5.4616-.1253a9.4208,9.4208,0,0,1,3.02-.537,11.6079,11.6079,0,0,1,1.7972.2977c2.2492.316,3.143-1.2635,5.1693-1.5008,2.4923-.2918,5.3469,1.6051,5.2978,2.8993-.0457,1.2027-2.602,1.9725-4.1874,2.4348C77.6368,144.9818,67.3681,142.7466,67.28,140.8005Z" fill="url(#bh)"/>
        <path d="M47.6268,151.1362a5.2784,5.2784,0,0,1-1.5693-1.8093,4.7144,4.7144,0,0,1,.0105-4.0143c.9356-1.85,3.19-2.3972,4.44-2.6823a104.6554,104.6554,0,0,1,14.7144-2.4744c7.7567-.509,10.6092-.654,14.7676-.4425,6.4072.3259,8.5378,1.1235,9.5122,2.7653a5.3214,5.3214,0,0,1-.0657,5.1707c-2.3269,3.87-8.728.8073-20.7293,2.3008C62.0566,150.7779,50.7725,153.3673,47.6268,151.1362Z" fill="url(#bi)"/>
        <path d="M50.6323,139.63a20.5578,20.5578,0,0,0-2.2645,1.3233c-1.8741,1.0335-2.6068.6011-3.2654,1.4929a1.984,1.984,0,0,0-.2893,2.084c.5265.7728,2.047.556,3.1591.3848,3.0117-.4637,3.4627-1.5366,6.4285-2.3324a20.0694,20.0694,0,0,1,5.1133-.6309c1.6507.0309,2.1385.1165,2.7667.1057,0,0,.4759-.0227.9193-.0706,2.2228-.24,6.0123-1.9646,5.837-2.4952-.1486-.4494-2.7576,1.1162-5.6026-.0322a12.21,12.21,0,0,0-3.5821-1.0793c-2.2293-.2351-2.3727.9678-4.8763.7476a6.386,6.386,0,0,0-4.3437.5023Z" fill="url(#bj)"/>
        <g opacity="0.3" style="mix-blend-mode: multiply">
          <path d="M86.164,145.569a9.8353,9.8353,0,0,1-4.0319-1.27c-5.81-2.9767-15.7568-1.7735-22.1982.7558-5.6636,2.2239-7.4913,5.031-11.3777,4.1668a8.2521,8.2521,0,0,1-2.9024-1.2966,4.5573,4.5573,0,0,0,.4037,1.4016,5.2784,5.2784,0,0,0,1.5693,1.8093c3.1457,2.2311,14.43-.3583,21.0808-1.186,12.0013-1.4935,18.4024,1.5689,20.7293-2.3008a5.2309,5.2309,0,0,0,.7019-2.6971A9.3333,9.3333,0,0,1,86.164,145.569Z" fill="url(#bk)"/>
        </g>
      </g>
      <rect width="160" height="160" fill="none"/>
    </g>
  </g>
</svg>
