<svg xmlns="http://www.w3.org/2000/svg" xmlns:xlink="http://www.w3.org/1999/xlink" width="160" height="160" viewBox="0 0 160 160">
  <defs>
    <linearGradient id="a" x1="55.7053" y1="8.4401" x2="91.5819" y2="237.7943" gradientUnits="userSpaceOnUse">
      <stop offset="0.0036" stop-color="#d191c0"/>
      <stop offset="1" stop-color="#8172b4"/>
    </linearGradient>
    <linearGradient id="b" x1="49.2903" y1="43.2604" x2="82.2132" y2="253.7327" gradientUnits="userSpaceOnUse">
      <stop offset="0" stop-color="#9681bc"/>
      <stop offset="0.9964" stop-color="#6166ae"/>
    </linearGradient>
    <clipPath id="d">
      <path d="M88.7811,122.96a10.6955,10.6955,0,0,0,4.6075-2.0558c3.8047-4.2654,11.4469-11.7888,11.4671-17.831.0034-1.032-4.5322-2.2725-5.1173-3.2563-2.7-1.4928-3.7289-1.8433-5.5983-4.5233-5.519-7.9121,9.0194-21.2186-6.5609-27.184-11.4123-4.37-21.4927-.9719-19.1157-18.9629S58.5621-2.6622,38.6978,8.754c-11.4,6.5518-1.2411,22.6093-7.5809,33.5922-6.0243,10.4366-2.0108,19.5873,9.0281,26.763s4.6176,11.764.6553,21.7918c-4.76,12.0455,14.0169,15.4013,22.8177,16.2111C70.7051,107.7641,88.3112,114.2061,88.7811,122.96Z" fill="url(#a)"/>
    </clipPath>
    <clipPath id="f">
      <path d="M92.3887,146.368a10.6954,10.6954,0,0,0,3.94-3.1518c2.6052-5.0875,8.1016-14.2959,6.5963-20.1477-.257-.9994-4.9589-1.0553-5.7733-1.86-2.9891-.7632-4.0734-.8426-6.5586-2.9642-7.3369-6.2634,3.3732-22.8079-13.2082-24.6487C65.239,92.2477,56.3422,98.0791,54.1023,80.0706S31.4477,32.4368,15.1071,48.4962c-9.378,9.2165,4.5044,22.1908,1.1412,34.418-3.1958,11.6191,2.997,19.4608,15.4894,23.6187s7.4368,10.2181,6.1331,20.9212c-1.5659,12.8567,17.45,11.3658,26.17,9.9286C71.0631,136.2253,89.725,138.016,92.3887,146.368Z" fill="url(#b)"/>
    </clipPath>
    <linearGradient id="g" x1="86.2444" y1="7.488" x2="121.5317" y2="71.8585" gradientUnits="userSpaceOnUse">
      <stop offset="0" stop-color="#ffc546"/>
      <stop offset="0.9964" stop-color="#f36f56"/>
    </linearGradient>
    <linearGradient id="h" x1="100.2065" y1="18.201" x2="67.8217" y2="49.9842" xlink:href="#g"/>
    <linearGradient id="i" x1="110.7627" y1="15.1583" x2="98.095" y2="27.5908" xlink:href="#g"/>
    <linearGradient id="j" x1="137.1442" y1="18.6029" x2="114.577" y2="40.7509" xlink:href="#g"/>
    <linearGradient id="k" x1="153.4316" y1="33.848" x2="66.5701" y2="44.7056" gradientUnits="userSpaceOnUse">
      <stop offset="0" stop-color="#d8dee8"/>
      <stop offset="1" stop-color="#fff"/>
    </linearGradient>
    <linearGradient id="l" x1="153.9599" y1="38.075" x2="67.0984" y2="48.9326" xlink:href="#k"/>
    <linearGradient id="m" x1="56.7082" y1="90.4679" x2="146.5024" y2="90.4679" gradientUnits="userSpaceOnUse">
      <stop offset="0" stop-color="#f3723b"/>
      <stop offset="1" stop-color="#e54750"/>
    </linearGradient>
    <linearGradient id="n" x1="71.9635" y1="141.7572" x2="127.3252" y2="36.1668" xlink:href="#k"/>
    <linearGradient id="o" x1="79.523" y1="99.0457" x2="62.2025" y2="71.5137" xlink:href="#k"/>
    <linearGradient id="p" x1="56.7082" y1="90.5223" x2="146.5025" y2="90.5223" xlink:href="#k"/>
    <linearGradient id="q" x1="169.6188" y1="25.8497" x2="66.0744" y2="127.4708" xlink:href="#m"/>
    <linearGradient id="r" x1="87.1297" y1="90.9894" x2="61.8832" y2="158.7563" xlink:href="#g"/>
    <linearGradient id="s" x1="82.1646" y1="144.0143" x2="78.6212" y2="107.2518" xlink:href="#g"/>
    <linearGradient id="t" x1="51.7814" y1="140.1291" x2="52.6673" y2="79.4486" xlink:href="#g"/>
    <linearGradient id="u" x1="62.4604" y1="140.2851" x2="63.3463" y2="79.6046" xlink:href="#g"/>
    <linearGradient id="v" x1="75.3123" y1="140.4727" x2="76.1982" y2="79.792" xlink:href="#g"/>
    <linearGradient id="w" x1="84.1872" y1="140.602" x2="85.0731" y2="79.9217" xlink:href="#g"/>
    <linearGradient id="x" x1="93.1806" y1="140.7337" x2="94.0665" y2="80.0531" xlink:href="#g"/>
    <linearGradient id="y" x1="102.2985" y1="140.8667" x2="103.1844" y2="80.1861" xlink:href="#g"/>
    <linearGradient id="z" x1="107.9482" y1="140.9491" x2="108.8341" y2="80.2685" xlink:href="#g"/>
    <linearGradient id="aa" x1="43.6412" y1="140.0099" x2="44.5271" y2="79.3301" xlink:href="#g"/>
    <linearGradient id="ab" x1="70.5203" y1="140.4025" x2="71.4062" y2="79.7221" xlink:href="#g"/>
    <linearGradient id="ac" x1="77.309" y1="99.404" x2="80.8524" y2="127.751" gradientUnits="userSpaceOnUse">
      <stop offset="0" stop-color="#ac316e"/>
      <stop offset="1" stop-color="#7a2e3e"/>
    </linearGradient>
    <linearGradient id="ad" x1="79.1564" y1="107.8425" x2="81.8254" y2="129.1952" xlink:href="#ac"/>
    <linearGradient id="ae" x1="116.0886" y1="114.0849" x2="95.2209" y2="133.5745" gradientUnits="userSpaceOnUse">
      <stop offset="0" stop-color="#23abb5"/>
      <stop offset="1" stop-color="#426064"/>
    </linearGradient>
    <linearGradient id="af" x1="678.1783" y1="191.0756" x2="686.1502" y2="245.9937" gradientTransform="translate(-578.2775 -132.7414) rotate(5.0829)" xlink:href="#g"/>
    <linearGradient id="ag" x1="59.2501" y1="117.5728" x2="52.5567" y2="137.8498" xlink:href="#ae"/>
    <linearGradient id="ah" x1="678.1622" y1="191.0794" x2="686.1338" y2="245.9951" gradientTransform="translate(-578.2775 -132.7414) rotate(5.0829)" xlink:href="#g"/>
    <linearGradient id="ai" x1="-141.9405" y1="69.7392" x2="-151.014" y2="56.885" gradientTransform="matrix(-1, 0, 0, 1, -94.2972, 0)" gradientUnits="userSpaceOnUse">
      <stop offset="0" stop-color="#454c8d"/>
      <stop offset="0.9964" stop-color="#26274f"/>
    </linearGradient>
    <linearGradient id="aj" x1="66.7582" y1="72.3638" x2="66.2877" y2="81.655" gradientUnits="userSpaceOnUse">
      <stop offset="0" stop-color="#8a3a77"/>
      <stop offset="1" stop-color="#321944"/>
    </linearGradient>
    <linearGradient id="ak" x1="-163.9141" y1="66.1942" x2="-161.4427" y2="85.5075" gradientTransform="matrix(-1, 0, 0, 1, -94.2972, 0)" xlink:href="#b"/>
    <linearGradient id="al" x1="69.2361" y1="32.9769" x2="69.4848" y2="44.7918" gradientUnits="userSpaceOnUse">
      <stop offset="0" stop-color="#321944"/>
      <stop offset="1" stop-color="#a13b77"/>
    </linearGradient>
    <linearGradient id="am" x1="-273.2743" y1="-17.3834" x2="-278.387" y2="-11.0465" gradientTransform="matrix(-0.8633, 0.5047, 0.5047, 0.8633, -164.0395, 188.1566)" xlink:href="#al"/>
    <linearGradient id="an" x1="65.5725" y1="80.6988" x2="93.0701" y2="80.6988" xlink:href="#aj"/>
    <linearGradient id="ao" x1="65.5725" y1="80.7628" x2="93.0701" y2="80.7628" xlink:href="#aj"/>
    <linearGradient id="ap" x1="73.3592" y1="91.3984" x2="68.0667" y2="84.8122" xlink:href="#b"/>
    <linearGradient id="aq" x1="70.1099" y1="89.8343" x2="62.8179" y2="80.6606" xlink:href="#g"/>
    <linearGradient id="ar" x1="54.4112" y1="80.3911" x2="48.3524" y2="92.9935" xlink:href="#aj"/>
    <linearGradient id="as" x1="75.37" y1="40.7298" x2="72.322" y2="48.9112" xlink:href="#g"/>
    <linearGradient id="at" x1="74.7705" y1="47.1314" x2="74.3427" y2="42.6931" xlink:href="#g"/>
    <linearGradient id="au" x1="71.1024" y1="46.6624" x2="71.2093" y2="39.3364" xlink:href="#g"/>
    <linearGradient id="av" x1="72.3917" y1="46.6812" x2="72.4986" y2="39.3553" xlink:href="#g"/>
    <linearGradient id="aw" x1="73.9433" y1="46.7038" x2="74.0502" y2="39.3779" xlink:href="#g"/>
    <linearGradient id="ax" x1="75.0147" y1="46.7193" x2="75.1217" y2="39.3936" xlink:href="#g"/>
    <linearGradient id="ay" x1="76.1005" y1="46.7353" x2="76.2074" y2="39.4094" xlink:href="#g"/>
    <linearGradient id="az" x1="77.2013" y1="46.7516" x2="77.3082" y2="39.4255" xlink:href="#g"/>
    <linearGradient id="ba" x1="77.8834" y1="46.7614" x2="77.9903" y2="39.4354" xlink:href="#g"/>
    <linearGradient id="bb" x1="70.1196" y1="46.6481" x2="70.2266" y2="39.3221" xlink:href="#g"/>
    <linearGradient id="bc" x1="73.3647" y1="46.6952" x2="73.4717" y2="39.3695" xlink:href="#g"/>
    <linearGradient id="bd" x1="74.1843" y1="41.7457" x2="74.6121" y2="45.168" xlink:href="#m"/>
    <linearGradient id="be" x1="74.4073" y1="42.7644" x2="74.7296" y2="45.3423" xlink:href="#ac"/>
    <linearGradient id="bf" x1="78.8662" y1="43.5181" x2="76.3468" y2="45.871" xlink:href="#ae"/>
    <linearGradient id="bg" x1="665.8917" y1="118.1558" x2="666.8542" y2="124.7861" gradientTransform="translate(-578.2775 -132.7414) rotate(5.0829)" xlink:href="#g"/>
    <linearGradient id="bh" x1="72.0041" y1="43.9392" x2="71.196" y2="46.3872" xlink:href="#ae"/>
    <linearGradient id="bi" x1="665.8898" y1="118.1563" x2="666.8522" y2="124.7862" gradientTransform="translate(-578.2775 -132.7414) rotate(5.0829)" xlink:href="#g"/>
    <linearGradient id="bj" x1="88.5493" y1="56.9601" x2="76.5878" y2="38.8576" xlink:href="#al"/>
    <linearGradient id="bk" x1="46.5203" y1="67.3231" x2="75.6065" y2="37.8703" xlink:href="#al"/>
    <linearGradient id="bl" x1="44.7242" y1="66.0879" x2="74.6312" y2="35.8039" xlink:href="#al"/>
    <linearGradient id="bm" x1="89.9449" y1="56.038" x2="77.9834" y2="37.9354" xlink:href="#al"/>
  </defs>
  <g style="isolation: isolate">
    <g>
      <rect width="160" height="160" fill="none"/>
      <g>
        <path d="M41.0588,14.2894c-5.0378,7.212.8692,18.9043-6.6062,24.3283-7.2766,5.28-16.2158-3.3745-23.0735,1.17-10.1732,6.742-8.3153,37.5924,6.5583,56.76,4.473,5.7645,8.2105,8.0073,9.8658,14.5267,3.5544,13.9986-8.9376,22.3259-6.56,29.2494,5.3527,15.5892,87.6722,28.67,120.7025-18.18,15.4265-21.8812,17.7347-53.4779,3.9516-77.4757C120.991,1.3047,52.3629-1.893,41.0588,14.2894Z" fill="#f4f7fa"/>
        <g>
          <path d="M88.7811,122.96a10.6955,10.6955,0,0,0,4.6075-2.0558c3.8047-4.2654,11.4469-11.7888,11.4671-17.831.0034-1.032-4.5322-2.2725-5.1173-3.2563-2.7-1.4928-3.7289-1.8433-5.5983-4.5233-5.519-7.9121,9.0194-21.2186-6.5609-27.184-11.4123-4.37-21.4927-.9719-19.1157-18.9629S58.5621-2.6622,38.6978,8.754c-11.4,6.5518-1.2411,22.6093-7.5809,33.5922-6.0243,10.4366-2.0108,19.5873,9.0281,26.763s4.6176,11.764.6553,21.7918c-4.76,12.0455,14.0169,15.4013,22.8177,16.2111C70.7051,107.7641,88.3112,114.2061,88.7811,122.96Z" fill="url(#a)"/>
          <g clip-path="url(#d)">
            <g style="mix-blend-mode: soft-light">
              <g>
                <path d="M98.9293,112.4974l.136-.24C62.0881,91.2993,41.5523,50.6736,44.1323,3.5839l-.2757-.0153c-1.2226,22.3173,2.93,44.0047,12.0082,62.7176A105.8294,105.8294,0,0,0,98.9293,112.4974Z" fill="#fdfeff"/>
                <path d="M38.2477,95.6806c11.25-2.9308,29.6961-1.8815,41.1195,2.3394l.0955-.2588c-11.4683-4.2374-29.9883-5.2905-41.2845-2.3477Z" fill="#fdfeff"/>
                <path d="M91.7176,108.3l.1972-.193c-4.4263-4.5254-6.3949-11.1146-5.8509-19.5846a72.0343,72.0343,0,0,1,5.0985-20.98l-.2574-.1a72.3055,72.3055,0,0,0-5.1165,21.0614C85.2392,97.0562,87.234,103.7164,91.7176,108.3Z" fill="#fdfeff"/>
                <path d="M54.6794,63.58l.207-.1825c-7.9048-8.9592-20.0995-11.9833-28.9377-12.9427l-.03.2745C34.7086,51.6834,46.8333,54.6872,54.6794,63.58Z" fill="#fdfeff"/>
                <path d="M46.2053,37.5756l.276-.0029c-.1371-13.4592,8.3075-24.7863,13.3533-30.34L59.63,7.0467C54.5573,12.6308,46.0673,24.0221,46.2053,37.5756Z" fill="#fdfeff"/>
              </g>
            </g>
          </g>
        </g>
        <g>
          <path d="M92.3887,146.368a10.6954,10.6954,0,0,0,3.94-3.1518c2.6052-5.0875,8.1016-14.2959,6.5963-20.1477-.257-.9994-4.9589-1.0553-5.7733-1.86-2.9891-.7632-4.0734-.8426-6.5586-2.9642-7.3369-6.2634,3.3732-22.8079-13.2082-24.6487C65.239,92.2477,56.3422,98.0791,54.1023,80.0706S31.4477,32.4368,15.1071,48.4962c-9.378,9.2165,4.5044,22.1908,1.1412,34.418-3.1958,11.6191,2.997,19.4608,15.4894,23.6187s7.4368,10.2181,6.1331,20.9212c-1.5659,12.8567,17.45,11.3658,26.17,9.9286C71.0631,136.2253,89.725,138.016,92.3887,146.368Z" fill="url(#b)"/>
          <g clip-path="url(#f)">
            <g style="mix-blend-mode: soft-light">
              <g>
                <path d="M99.5683,133.6832l.071-.2665C58.57,122.4677,28.4474,88.3388,19.0611,42.122l-.2706.0548C23.2391,64.08,32.73,84.0181,46.2364,99.8345A105.8284,105.8284,0,0,0,99.5683,133.6832Z" fill="#fdfeff"/>
                <path d="M36.6069,132.7232c10.1463-5.6748,28.26-9.3142,40.3791-8.1125l.0272-.2745c-12.1665-1.2064-30.3529,2.4481-40.5409,8.1461Z" fill="#fdfeff"/>
                <path d="M91.5309,131.4416l.1421-.2366c-5.425-3.2619-8.9927-9.1412-10.6036-17.4743a72.0316,72.0316,0,0,1-.3605-21.5873l-.2743-.0313a72.3021,72.3021,0,0,0,.3638,21.6708C82.4248,122.1963,86.0357,128.1376,91.5309,131.4416Z" fill="#fdfeff"/>
                <path d="M44.4065,97.5151l.1542-.2289c-9.91-6.6745-22.4729-6.5235-31.2672-5.2216l.04.2732C22.08,91.0429,34.57,90.89,44.4065,97.5151Z" fill="#fdfeff"/>
                <path d="M29.6446,74.4906l.2664-.0725c-3.5291-12.989,1.7839-26.08,5.265-32.728l-.2445-.1281C31.4317,48.2455,26.0909,61.4106,29.6446,74.4906Z" fill="#fdfeff"/>
              </g>
            </g>
          </g>
        </g>
        <g>
          <path d="M64.3063,49.5435c-4.2773-4.4458-9.53-12.1841-7.3295-15.677,1.954-3.1012,8.5685-.9265,12.0122-5.4971,2.0034-2.6589.4777-4.3407,2.036-7.33C74.8839,13.6382,91.053,10.8847,97.9,16.9679c2.71,2.4075,2.6112,5.0012,5.2936,5.7007,3.9387,1.0271,5.8084-4.1335,11.605-4.6827,4.732-.4484,5.2037,2.8279,12.6231,3.8683,5.56.78,6.8367-.8438,10.3835.6108,4.74,1.944,6.9483,6.6848,7.5331,7.94,3.63,7.7927.8064,17.58-2.6468,22.803C130.1,72.2531,83.4579,69.45,64.3063,49.5435Z" fill="url(#g)"/>
          <path d="M80.1869,23.89c-2.4833,1.8694-1.5234,4.2073-4.4791,6.7187-3.4666,2.9455-6.625,1.2915-8.5511,3.6648-2.2587,2.783-1.0423,8.91,2.24,12.0122,5.5085,5.2069,17.7837,2.7867,23.21-4.4791,2.5873-3.4643,5.637-10.7343,1.6288-15.677C90.7775,21.866,83.649,21.284,80.1869,23.89Z" fill="url(#h)"/>
          <path d="M110.93,23.2794c.5843-2.895-3.1161-6.4276-6.9223-6.7187-3.93-.3006-8.08,2.8465-7.94,5.7007.149,3.0417,5.1542,5.4385,9.1619,4.8864C107.2381,26.871,110.4511,25.6531,110.93,23.2794Z" fill="url(#i)"/>
          <path d="M121.9245,24.9082c-5.0328-.4978-11.2388,3.0852-11.1979,6.7187.0342,3.0365,4.4238,5.4627,7.3295,6.3115,4.7327,1.3825,8.9046-.4338,14.4554-2.85,2.5635-1.116,6.9873-3.0419,6.7188-4.4792-.25-1.3393-4.2684-.6114-10.7907-3.054C124.4215,26.05,124.2485,25.1381,121.9245,24.9082Z" fill="url(#j)"/>
          <g>
            <g>
              <path d="M149.3444,41.4c0,5.1842-21.3112,5.3656-47.6,5.3656s-47.6-.1814-47.6-5.3656,21.3113-9.3868,47.6-9.3868S149.3444,36.2154,149.3444,41.4Z" fill="url(#k)"/>
              <path d="M54.1844,41.4s-2.2138,6.0741-2.2138,6.1626,99.27,0,99.27,0L149.38,41.4Z" fill="url(#l)"/>
            </g>
            <ellipse cx="101.6053" cy="47.6065" rx="49.6207" ry="9.7852" fill="#d8dee8"/>
            <path d="M146.4744,47.6508c0-4.5973-20.0886-8.3241-44.869-8.3241s-44.8692,3.7268-44.8692,8.3241h-.028l9.1211,83.3318c0,5.8689,16.0175,10.6265,35.7761,10.6265s35.7759-4.7576,35.7759-10.6265l9.1211-83.3318Z" fill="url(#m)"/>
            <g>
              <path d="M101.6054,39.3267c-3.8737,0-7.6326.091-11.2181.2622l6.1232,101.9125q2.4966.1058,5.0949.1077c1.9223,0,3.8086-.0456,5.6488-.1323l6.12-101.86C109.6232,39.4279,105.6783,39.3267,101.6054,39.3267Z" fill="url(#n)"/>
              <path d="M62.1692,43.6772,72.0474,136.97a50.71,50.71,0,0,0,10.8094,3.0638L74.3634,41.0367A70.1476,70.1476,0,0,0,62.1692,43.6772Z" fill="url(#o)"/>
              <path d="M129.3931,41.1149,120.9154,139.93a47.77,47.77,0,0,0,10.8279-3.2187l9.8308-92.8467A65.451,65.451,0,0,0,129.3931,41.1149Z" fill="url(#p)"/>
            </g>
            <path d="M146.4744,47.6508c0-4.5973-20.0886-8.3241-44.8691-8.3241a210.9533,210.9533,0,0,0-23.4675,1.2281A28.0683,28.0683,0,0,0,76.6815,50.75c.989,20.4448,25.3876,27.2723,33.8278,46.58,5.1448,11.769,5.3433,13.1612-14.0545,44.17q2.5229.108,5.15.1094c19.7585,0,35.776-4.7576,35.776-10.6265l9.1211-83.3318Z" fill="url(#q)"/>
          </g>
        </g>
        <g>
          <path d="M37.947,126.1336c-8.61-2.78-11.85-5.072-13.18-8.375C20.947,108.2722,33.88,92.9328,46.8278,85.45c11.92-6.8881,23.2305-6.7584,39.1037-6.5765,15.384.1762,26.4125.3026,36.26,8.01,7.3972,5.79,15.6037,17.0136,12.4024,25.3955-1.8141,4.75-6.7841,7.2582-18.3613,10.6515C70.967,136.1987,43.9014,128.056,37.947,126.1336Z" fill="url(#r)"/>
          <path d="M56.5528,107.1541c-22.4894,2.2393-27.5295,9.2141-27.0757,15.5061a45.3813,45.3813,0,0,0,8.47,3.4734c5.9544,1.9224,33.02,10.0651,78.2853-3.2024a67.6915,67.6915,0,0,0,12.399-4.5752C137.0731,93.9606,95.0227,103.3235,56.5528,107.1541Z" fill="url(#s)"/>
          <path d="M53.4855,85.3093c-2.265.636-5.4064,2.2938-5.1518,3.4729.2343,1.0853,3.375,1.8991,5.6439.76,2.0077-1.0082,3.2652-3.5118,2.6577-4.331C56.1529,84.56,54.5275,85.0167,53.4855,85.3093Z" fill="url(#t)"/>
          <path d="M63.9192,82.2578c-1.7349.2482-4.0288,1.3646-3.9372,2.5593.0761.9893,1.78,1.93,3.2483,1.7718,2.2244-.2391,3.7913-2.986,3.2483-3.9373C66.0776,81.9491,64.4973,82.1752,63.9192,82.2578Z" fill="url(#u)"/>
          <path d="M75.5343,80.1907c-1.021.088-4.5408.391-4.6263,1.28-.0786.8163,2.7369,2.17,5.4937,1.9824,2.6352-.1794,5.2057-1.7664,5.0385-2.573C81.2446,79.935,77.2888,80.04,75.5343,80.1907Z" fill="url(#v)"/>
          <path d="M85.2791,81.1751c-1.186-.1335-2.0752,1.2114-1.87,1.6733.2854.6432,3.0564.3956,3.268-.3786C86.8,82.0186,86.088,81.2661,85.2791,81.1751Z" fill="url(#w)"/>
          <path d="M95.91,80.5845c-2.2547-1.5634-5.4734-.105-5.6107.9843-.201,1.5954,5.95,4.4418,7.1856,3.15C98.1913,83.98,97.49,81.6805,95.91,80.5845Z" fill="url(#x)"/>
          <path d="M102.8,81.6672a1.5128,1.5128,0,0,0-1.1812,1.575c.1949,1.1131,2.5263,1.5531,2.9529.9843S103.9233,81.5427,102.8,81.6672Z" fill="url(#y)"/>
          <path d="M109.3949,81.6672c-1.1151-.4738-2.3329.3248-2.3623.8859-.0459.8736,2.74,2.0976,3.3467,1.4765C110.7737,83.6261,110.534,82.1513,109.3949,81.6672Z" fill="url(#z)"/>
          <path d="M43.0517,89.1481c-.1067-.6946,1.7312-1.83,2.3623-1.378a1.4057,1.4057,0,0,1-.1968,1.9686A1.51,1.51,0,0,1,43.0517,89.1481Z" fill="url(#aa)"/>
          <path d="M70.5142,86.0967a1.6832,1.6832,0,0,0-.689,2.1655c.5979,1.0375,2.7749.6974,3.0514,0C73.173,87.5148,71.5407,85.7163,70.5142,86.0967Z" fill="url(#ab)"/>
          <path d="M40.8861,132.6551c-3.2908-.6622-8.31-1.8131-9.0453-4.776-1.1081-4.4645,7.9691-11.1943,15.97-14.6241,8.0358-3.4448,10.9416-1.8273,31.3828-4.3625,6.1937-.7681,9.9288-1.4129,19.8759-2.5307,9.6607-1.0856,16.1862-1.6065,22.8265,1.6853,2.107,1.0445,5.884,2.9779,6.3153,6.18.5118,3.8007-3.9756,7.266-6.1185,8.88C104.7318,136.1834,67.6494,138.0406,40.8861,132.6551Z" fill="url(#ac)"/>
          <path d="M43.0876,132.6264c-3.2079-.47-8.1006-1.286-8.8174-3.3876-1.08-3.1668,7.7683-7.94,15.5675-10.373,7.8333-2.4434,10.6658-1.2961,30.592-3.0943,6.0377-.5449,9.6786-1.0023,19.375-1.795,9.4173-.77,15.7784-1.14,22.2513,1.1953,2.054.7409,5.7358,2.1123,6.1562,4.3835.4989,2.6959-3.8754,5.1538-5.9643,6.2987C105.3244,135.129,69.1765,136.4463,43.0876,132.6264Z" opacity="0.3" fill="url(#ad)" style="mix-blend-mode: multiply"/>
          <path d="M78.6378,125.6155c-.2187-2.0653,4.3084-4.2932,6.008-4.984,5.0957-2.071,6.9119.678,13.2848-1.3157,2.4164-.756,4.0569-1.7461,7.2839-1.87a28.23,28.23,0,0,1,4.43.3937c5.5379.3547,7.4867-3.67,12.4024-4.6263,6.05-1.1774,13.3149,2.9288,13.3869,6.1028.0667,2.9494-6.0734,5.3041-9.8816,6.7269C104.4825,133.9143,79.1385,130.3437,78.6378,125.6155Z" fill="url(#ae)"/>
          <path d="M31.6957,149.848a12.5936,12.5936,0,0,1-3.6819-4.4608,11.5314,11.5314,0,0,1,.3039-9.7736c2.398-4.474,7.9057-5.7319,10.9627-6.3852,22.7605-4.8639,35.9731-5.5568,35.9731-5.5568,18.9642-.9947,25.945-1.258,36.102-.6079,15.6717,1.003,20.8414,3.0243,23.1188,7.0758a13.0214,13.0214,0,0,1-.5173,12.6592c-5.9743,9.393-21.446,1.6723-50.8809,4.9019C66.8034,149.486,39.1779,155.3955,31.6957,149.848Z" fill="url(#af)"/>
          <path d="M44.0805,121.413c-2.6659,1.4293-3.1642,2.25-5.2881,3.6338-4.3832,2.8555-6.2188,1.9383-7.6809,4.2265-.9609,1.5038-1.3988,3.8262-.3938,5.1185,1.3865,1.7828,5.0329.98,7.6989.3612,7.2237-1.676,8.1586-4.3681,15.2286-6.8466a48.9549,48.9549,0,0,1,12.3113-2.472c4.4446-.2521,5.86.3611,8.9572-.5906,5.1984-1.5974,9.0193-5.7252,8.4653-6.7918-.4314-.8306-3.1734.8565-8.2683.5906-4.7588-.2483-4.8574-1.85-8.8589-1.9686-5.4448-.1614-5.6155,2.7936-11.72,2.7184-2.13-.0263-4.0825-.41-6.9171.4618A19.1789,19.1789,0,0,0,44.0805,121.413Z" fill="url(#ag)"/>
          <g opacity="0.3" style="mix-blend-mode: multiply">
            <path d="M126.0734,137.5931a23.8082,23.8082,0,0,1-9.7912-3.243C102.2715,126.88,77.9,129.4935,62.03,135.4514c-13.9317,5.2305-18.5681,12.0084-27.9463,9.7669a19.6766,19.6766,0,0,1-6.952-3.2577,11.0192,11.0192,0,0,0,.8818,3.4266,12.5936,12.5936,0,0,0,3.6819,4.4608c7.4822,5.5475,35.1077-.362,51.38-2.1474,29.4349-3.23,44.9066,4.4911,50.8809-4.9019a12.9272,12.9272,0,0,0,1.908-6.5805A23.0776,23.0776,0,0,1,126.0734,137.5931Z" fill="url(#ah)"/>
          </g>
        </g>
        <g>
          <path d="M68.2408,46.6565c1.1266-1.0414,3.2819-2.2419,4.363-5.0327.3254-.84,1.4782-3.8164-.2224-6.0932a4.8619,4.8619,0,0,0-4.5367-1.9443c-1.4123.2776-1.6331,1.2611-4.0327,3.24a16.969,16.969,0,0,1-4.1063,2.6974c-2.8628,1.18-4.5827.07-7.4567.1963A13.1045,13.1045,0,0,0,42.64,44.7121c-3.5075,5.0857,1.5734,10.2448-2.2684,16.2028-1.2588,1.9519-1.8792,1.5143-4.8608,5.2929-2.9855,3.7836-4.4784,5.6751-4.2127,7.9934.3687,3.2173,3.834,6.2907,7.0973,6.5,3.1878.2042,5.2142-2.3039,6.8371-1.2068,1.1551.7806.4946,2.2992,1.7214,4.1241,1.5814,2.3528,4.69,2.8216,5.1917,2.8971,4.66.703,10.942-4.7608,13.61-11.2339C70.5679,63.6086,62.1158,52.3181,68.2408,46.6565Z" fill="url(#ai)"/>
          <polygon points="66.262 79.495 88.21 74.006 89.307 79.338 69.215 88.611 53.306 84.681 43.709 75.258 66.262 79.495" fill="url(#aj)"/>
          <path d="M92.5636,57.2294c1.4286-2.9926-6.3781-11.74-15.96-14.1538a26.182,26.182,0,0,0-10.5112-.2239,24.6881,24.6881,0,0,0-12.2016,5.8245c-4.2239,3.4682-6.1474,7.1957-5.0848,8.9534.8267,1.3676,3.5,1.6072,5.4019,1.2242,3.7092-.7469,4.9035-3.9449,6.1474-3.4461,1.502.6023.9594,5.7509-.1451,9.3894A12.2575,12.2575,0,0,1,56.42,71.24c-1.2827,1.0337-2.7,1.5584-5.5343,2.6078-3.3424,1.2375-5.4148,1.5794-5.4,2.249.0192.8535,3.4141,1.55,3.2957,2.0823-.0087.04-.0336.0426-.0371.0714-.0457.3712,3.7678,1.2842,8.5876,2.0092,5.636.8477,8.4541,1.2715,11.1479.8107,4.2-.7183,3.4933-2.0116,7.7022-2.7363,4.8961-.8429,7.12.6889,11.5532-1.0134.7466-.2867,3.7342-1.4388,3.6484-2.6349-.106-1.479-5.0339-.9738-9.3236-4.7633a13.0722,13.0722,0,0,1-3.12-4.0758c-1.9067-3.96-2.1437-9.2018-.4038-10.0207,1.2453-.5861,2.3408,1.6409,5.8294,2.593C87.3492,59.233,91.7119,59.0133,92.5636,57.2294Z" fill="url(#ak)"/>
          <path d="M68.7892,37.7914s-.419,3.35-1.6553,4.1173-3.2351,1.77-3.4553,2.0418,7.6591,1.119,11.5638-.8515h0c-1.2868-.2684-1.6367-.3671-1.6367-.3671a7.2389,7.2389,0,0,1-1.6537-.6544,5.6234,5.6234,0,0,1-1.8182-1.6815l.0143-1.8548Z" fill="url(#al)"/>
          <path d="M68.6012,38.9778a1.8542,1.8542,0,0,0,2.07.6453c1.132-.4128.4564-3.3364-.4415-3.67a1.5881,1.5881,0,0,0-1.217.1673,1.7612,1.7612,0,0,0-.5533,1.98c-.2859-.0828-.5376-.0076-.6006.134-.08.18.1621.4243.217.48A.96.96,0,0,0,68.6012,38.9778Z" fill="url(#am)"/>
          <g>
            <path d="M65.5725,86.876a59.5651,59.5651,0,0,0,9.77-6.5209c4.3026-3.5424,6.2763-6.2147,10.6322-7.2707.7785-.1886,5.2137-1.2638,6.645.7057,1.5846,2.1806-1.4962,6.7407-1.87,7.2946-5.5651,8.2371-19.7366,7.8527-24.1817,7.5856Z" fill="url(#an)"/>
            <path d="M92.62,73.79a2.9162,2.9162,0,0,0-1.8611-1.04,3.5278,3.5278,0,0,1-.04,2.4315c-.87,1.9754-3.4446,1.367-5.2533,3.6852-1.7763,2.2767-.5467,4.471-2.117,5.41-1.8,1.0763-4.031-1.4382-5.9589-.2352-1.3108.8178-.903,2.3694-2.4306,3.2146-1.0557.5841-2.0905.3079-3.2931.1569a17,17,0,0,0-5.6372.2849l.5394.972c4.4451.2671,18.6166.6515,24.1817-7.5856C91.124,80.5308,94.2049,75.9707,92.62,73.79Z" opacity="0.3" fill="url(#ao)" style="mix-blend-mode: multiply"/>
            <path d="M68.87,88.1069a2.2591,2.2591,0,0,1,1.9591-.1826c1.16.3906,3.0015.7058,2.9987,1.2729s-1.8455.922-3.1188.689C69.4913,89.6632,68.5333,88.6046,68.87,88.1069Z" fill="url(#ap)"/>
            <path d="M67.699,87.1389l2.1346.6867a.7382.7382,0,0,1-.1212.9438c-.468.3664-2.0941-.4083-2.0941-.4083Z" fill="url(#aq)"/>
            <path d="M38.0293,77.2989c-.63,3.67,7.29,7.6393,9.1025,8.548,3.6951,1.8521,10.6477,4.4667,20.9665,3.4678q.206-1.235.4117-2.47a48.8712,48.8712,0,0,1-5.7273-2.3791c-4-1.9679-5.52-3.3732-11.0708-6.73-6.1427-3.7138-7.9321-4.19-9.7622-3.7306C40.3847,74.3988,38.3221,75.5936,38.0293,77.2989Z" fill="url(#ar)"/>
          </g>
          <g>
            <path d="M69.4322,44.9727c-1.0395-.3356-1.4306-.6123-1.5912-1.0111-.4613-1.1453,1.1-2.9972,2.6633-3.9006,1.4391-.8315,2.8047-.8159,4.721-.7939,1.8573.0212,3.1888.0365,4.3776.967.8931.6991,1.8839,2.0541,1.4974,3.066-.2191.5735-.8191.8763-2.2168,1.286C73.4187,46.1879,70.151,45.2048,69.4322,44.9727Z" fill="url(#as)"/>
            <path d="M71.6784,42.6813c-2.7151.27-3.3236,1.1124-3.2688,1.8721a5.479,5.479,0,0,0,1.0226.4193c.7188.2321,3.9865,1.2152,9.4513-.3866a8.1668,8.1668,0,0,0,1.4969-.5524C81.4,41.0885,76.3229,42.2189,71.6784,42.6813Z" fill="url(#at)"/>
            <path d="M71.3081,40.044c-.2734.0768-.6527.2769-.622.4193.0283.131.4075.2293.6814.0917.2424-.1217.3942-.424.3209-.5229C71.63,39.9536,71.4339,40.0087,71.3081,40.044Z" fill="url(#au)"/>
            <path d="M72.5678,39.6756c-.21.03-.4864.1647-.4754.309.0092.1194.2149.2329.3922.2139.2686-.0289.4577-.3605.3922-.4754C72.8284,39.6383,72.6376,39.6656,72.5678,39.6756Z" fill="url(#av)"/>
            <path d="M73.97,39.426c-.1233.0107-.5482.0472-.5586.1545-.01.0986.33.262.6633.2394.3181-.0217.6285-.2133.6083-.3107C74.66,39.3952,74.1819,39.4078,73.97,39.426Z" fill="url(#aw)"/>
            <path d="M75.1465,39.5449c-.1431-.0161-.2505.1462-.2257.202.0344.0777.3689.0478.3945-.0457C75.33,39.6467,75.2442,39.5559,75.1465,39.5449Z" fill="url(#ax)"/>
            <path d="M76.43,39.4736c-.2722-.1888-.6608-.0127-.6774.1188-.0243.1926.7183.5363.8675.38C76.7054,39.8835,76.6208,39.6059,76.43,39.4736Z" fill="url(#ay)"/>
            <path d="M77.2618,39.6043a.1827.1827,0,0,0-.1426.19c.0236.1344.305.1876.3566.1189S77.3974,39.5893,77.2618,39.6043Z" fill="url(#az)"/>
            <path d="M78.058,39.6043c-.1346-.0572-.2816.0392-.2852.107-.0055.1054.3308.2532.4041.1782C78.2245,39.8408,78.1956,39.6627,78.058,39.6043Z" fill="url(#ba)"/>
            <path d="M70.0484,40.5075c-.0128-.0839.2091-.221.2852-.1664a.17.17,0,0,1-.0237.2377A.1823.1823,0,0,1,70.0484,40.5075Z" fill="url(#bb)"/>
            <path d="M73.364,40.1391a.2032.2032,0,0,0-.0832.2614.2543.2543,0,0,0,.3684,0C73.685,40.31,73.4879,40.0931,73.364,40.1391Z" fill="url(#bc)"/>
            <path d="M69.787,45.76c-.3973-.08-1.0033-.2189-1.0921-.5766-.1337-.5391.9622-1.3515,1.9281-1.7656.97-.4159,1.321-.2206,3.7888-.5267.7478-.0927,1.1987-.1706,2.4-.3055a4.6652,4.6652,0,0,1,2.7559.2034c.2544.1261.71.36.7624.7461.0618.4589-.48.8773-.7387,1.0721C77.4951,46.186,73.0181,46.41,69.787,45.76Z" fill="url(#bd)"/>
            <path d="M70.0528,45.7566c-.3873-.0567-.978-.1553-1.0645-.409-.13-.3823.9378-.9586,1.8794-1.2523.9457-.295,1.2877-.1565,3.6934-.3736.7289-.0658,1.1685-.121,2.3391-.2167a6.1537,6.1537,0,0,1,2.6864.1443c.248.0894.6925.255.7432.5292.06.3255-.4678.6222-.72.7605C77.5666,46.0587,73.2025,46.2178,70.0528,45.7566Z" opacity="0.3" fill="url(#be)" style="mix-blend-mode: multiply"/>
            <path d="M74.3448,44.91c-.0265-.2493.52-.5183.7253-.6017.6152-.25.8344.0819,1.6039-.1588a2.8036,2.8036,0,0,1,.8793-.2258,3.4148,3.4148,0,0,1,.5348.0475c.6686.0429.9039-.443,1.4973-.5585.73-.1421,1.6076.3536,1.6162.7368.0081.3561-.7332.64-1.193.8121C77.465,45.9121,74.4052,45.481,74.3448,44.91Z" fill="url(#bf)"/>
            <path d="M68.6774,47.8357a1.52,1.52,0,0,1-.4445-.5385,1.3924,1.3924,0,0,1,.0367-1.18,1.855,1.855,0,0,1,1.3235-.7709,30.8914,30.8914,0,0,1,4.3431-.6708,33.9145,33.9145,0,0,1,4.3585-.0734c1.8921.1211,2.5162.3651,2.7912.8542a1.5723,1.5723,0,0,1-.0625,1.5284c-.7213,1.134-2.5892.2019-6.1428.5918C72.916,47.792,69.5808,48.5055,68.6774,47.8357Z" fill="url(#bg)"/>
            <path d="M70.1727,44.4028a6.1315,6.1315,0,0,0-.6385.4387c-.5291.3447-.7508.234-.9273.51a.5881.5881,0,0,0-.0475.6179c.1674.2153.6076.1183.93.0436.8721-.2023.9849-.5273,1.8385-.8266a5.9117,5.9117,0,0,1,1.4863-.2984,4.09,4.09,0,0,0,1.0814-.0713c.6276-.1929,1.0889-.6912,1.022-.82-.052-.1-.3831.1034-.9982.0713-.5745-.03-.5864-.2233-1.0695-.2377-.6574-.0194-.678.3373-1.415.3282a2.2825,2.2825,0,0,0-.8351.0558A2.3109,2.3109,0,0,0,70.1727,44.4028Z" fill="url(#bh)"/>
            <g opacity="0.3" style="mix-blend-mode: multiply">
              <path d="M80.0716,46.3562a2.874,2.874,0,0,1-1.1821-.3915c-1.6915-.9019-4.6339-.5863-6.55.133-1.682.6314-2.2417,1.45-3.3739,1.1791a2.3759,2.3759,0,0,1-.8393-.3933,1.33,1.33,0,0,0,.1064.4137,1.52,1.52,0,0,0,.4445.5385c.9034.67,4.2386-.0437,6.2032-.2592,3.5536-.39,5.4215.5422,6.1428-.5918a1.5617,1.5617,0,0,0,.23-.7945A2.7866,2.7866,0,0,1,80.0716,46.3562Z" fill="url(#bi)"/>
            </g>
          </g>
          <path d="M81.1951,45.8127a.3828.3828,0,0,0,.66-.27,3.0824,3.0824,0,0,0-.2736-1.3184,2.3194,2.3194,0,0,0-2.58-1.2321c-.8242.2237-1.0044.7612.0867,1.4763A10.3549,10.3549,0,0,1,81.1951,45.8127Z" fill="url(#bj)"/>
          <path d="M68.5075,46.6078a.3827.3827,0,0,1-.7134.02,3.0843,3.0843,0,0,1-.2822-1.3166,2.3194,2.3194,0,0,1,1.8626-2.1692c.8444-.1282,1.2263.2907.5169,1.3855A10.3549,10.3549,0,0,0,68.5075,46.6078Z" fill="url(#bk)"/>
          <path d="M67.8558,46.05c-2.719,1.1393-4.9427,1.956-6.4161,2.4748-4.2846,1.5086-6.6836,2.0682-8.1879,4.3385-.2563.3869-1.0847,1.6372-.6435,2.3607.7054,1.1567,4.1645.1611,4.7526-.0081a14.2454,14.2454,0,0,0,5.912-3.4831l5.1334-4.8711Z" fill="url(#bl)"/>
          <path d="M81.2333,44.5519c2.0233,1.8025,3.7123,3.1766,4.8382,4.0677,3.2738,2.5912,5.192,3.7942,5.8216,6.217.1072.413.4539,1.7472-.1457,2.2444-.9587.7948-3.6683-1.1039-4.1289-1.4267A13.0933,13.0933,0,0,1,83.52,50.8607L80.5123,45.093Z" fill="url(#bm)"/>
        </g>
      </g>
    </g>
  </g>
</svg>
