<svg xmlns="http://www.w3.org/2000/svg" xmlns:xlink="http://www.w3.org/1999/xlink" width="160" height="160" viewBox="0 0 160 160">
  <defs>
    <linearGradient id="a" x1="67.9282" y1="-103.8541" x2="37.6269" y2="63.7311" gradientUnits="userSpaceOnUse">
      <stop offset="0" stop-color="#454c8d"/>
      <stop offset="0.9964" stop-color="#26274f"/>
    </linearGradient>
    <linearGradient id="b" x1="47.9245" y1="63.1791" x2="43.0804" y2="89.9702" xlink:href="#a"/>
    <linearGradient id="c" x1="42.1855" y1="23.5333" x2="68.7099" y2="91.8537" gradientUnits="userSpaceOnUse">
      <stop offset="0" stop-color="#9681bc"/>
      <stop offset="0.9964" stop-color="#6166ae"/>
    </linearGradient>
    <linearGradient id="d" x1="32.817" y1="27.1758" x2="59.3458" y2="95.5074" xlink:href="#c"/>
    <linearGradient id="e" x1="53.085" y1="75.5555" x2="35.6018" y2="102.0926" xlink:href="#c"/>
    <clipPath id="f">
      <path d="M62.5266,32.886A16.5223,16.5223,0,0,1,45.88,49.2714a16.8621,16.8621,0,0,1-17.0487-16.678A16.5138,16.5138,0,0,1,45.88,16.2114,16.8736,16.8736,0,0,1,62.5266,32.886Z" fill="none"/>
    </clipPath>
    <linearGradient id="g" x1="45.9788" y1="-6.9788" x2="34.8324" y2="54.668" xlink:href="#c"/>
    <linearGradient id="h" x1="49.2042" y1="-5.7501" x2="38.1515" y2="55.3784" xlink:href="#c"/>
    <linearGradient id="i" x1="59.5839" y1="-3.5697" x2="48.5909" y2="57.2283" xlink:href="#c"/>
    <linearGradient id="j" x1="62.7089" y1="-2.5571" x2="51.7671" y2="57.9578" xlink:href="#c"/>
    <linearGradient id="k" x1="95.5715" y1="79.3902" x2="125.8475" y2="79.3902" gradientUnits="userSpaceOnUse">
      <stop offset="0.0036" stop-color="#d191c0"/>
      <stop offset="1" stop-color="#8172b4"/>
    </linearGradient>
    <linearGradient id="l" x1="96.912" y1="61.3449" x2="127.1406" y2="61.3449" xlink:href="#k"/>
    <linearGradient id="m" x1="96.7567" y1="68.9434" x2="126.8535" y2="68.9434" xlink:href="#k"/>
    <linearGradient id="n" x1="97.2161" y1="72.9216" x2="127.0356" y2="72.9216" xlink:href="#k"/>
    <linearGradient id="o" x1="85.6072" y1="118.5144" x2="129.6373" y2="118.5144" xlink:href="#k"/>
    <linearGradient id="p" x1="86.6109" y1="101.8191" x2="131.6337" y2="101.8191" xlink:href="#k"/>
    <linearGradient id="q" x1="71.0753" y1="110.085" x2="76.7986" y2="110.085" gradientUnits="userSpaceOnUse">
      <stop offset="0" stop-color="#f3723b"/>
      <stop offset="1" stop-color="#e54750"/>
    </linearGradient>
    <linearGradient id="r" x1="71.5432" y1="103.5506" x2="81.2716" y2="103.5506" xlink:href="#q"/>
    <linearGradient id="s" x1="20.5289" y1="143.5296" x2="39.793" y2="143.5296" xlink:href="#a"/>
    <linearGradient id="t" x1="26.9503" y1="143.7377" x2="33.1933" y2="143.7377" xlink:href="#a"/>
    <linearGradient id="u" x1="1241.1312" y1="-2394.0966" x2="1241.3168" y2="-2391.2985" gradientTransform="matrix(0.9065, 0.4221, -0.7442, 1.5981, -2890.5216, 3423.6454)" gradientUnits="userSpaceOnUse">
      <stop offset="0" stop-color="#ac316e"/>
      <stop offset="1" stop-color="#7a2e3e"/>
    </linearGradient>
    <linearGradient id="v" x1="46.8251" y1="114.5472" x2="47.4598" y2="124.1123" gradientTransform="matrix(1, 0, 0, 1, 0, 0)" xlink:href="#u"/>
    <linearGradient id="w" x1="36.9105" y1="120.142" x2="58.1899" y2="120.142" gradientTransform="matrix(1, 0, 0, 1, 0, 0)" xlink:href="#u"/>
    <linearGradient id="x" x1="16.4254" y1="140.1603" x2="27.7232" y2="140.1603" gradientTransform="matrix(1, 0, 0, 1, 0, 0)" xlink:href="#u"/>
    <linearGradient id="y" x1="29.0225" y1="144.4382" x2="48.643" y2="144.4382" gradientTransform="matrix(1, 0, 0, 1, 0, 0)" xlink:href="#u"/>
    <linearGradient id="z" x1="81.532" y1="143.5296" x2="100.7961" y2="143.5296" xlink:href="#a"/>
    <linearGradient id="aa" x1="87.9533" y1="143.7377" x2="94.1963" y2="143.7377" xlink:href="#a"/>
    <linearGradient id="ab" x1="1764.5323" y1="-3045.1249" x2="1780.7642" y2="-3045.1249" gradientTransform="matrix(0, 1, -1, 0, -2957.8988, -1633.5839)" xlink:href="#u"/>
    <linearGradient id="ac" x1="79.5104" y1="135.4461" x2="100.3201" y2="135.4461" xlink:href="#q"/>
    <linearGradient id="ad" x1="14.8041" y1="128.5221" x2="89.2027" y2="128.5221" xlink:href="#q"/>
    <linearGradient id="ae" x1="71.1275" y1="125.5765" x2="78.7315" y2="125.5765" xlink:href="#q"/>
    <linearGradient id="af" x1="55.4383" y1="140.5958" x2="71.9481" y2="140.5958" gradientTransform="matrix(1, 0, 0, 1, 0, 0)" xlink:href="#u"/>
    <linearGradient id="ag" x1="14.1567" y1="134.2038" x2="46.1262" y2="134.2038" xlink:href="#q"/>
    <linearGradient id="ah" x1="14.1567" y1="133.9766" x2="46.1262" y2="133.9766" xlink:href="#q"/>
    <linearGradient id="ai" x1="17.0143" y1="51.5591" x2="21.4123" y2="117.8429" xlink:href="#q"/>
    <linearGradient id="aj" x1="20.2848" y1="116.3582" x2="20.743" y2="123.2639" gradientTransform="matrix(1, 0, 0, 1, 0, 0)" xlink:href="#u"/>
    <linearGradient id="ak" x1="20.4134" y1="94.6245" x2="20.8284" y2="100.8803" xlink:href="#q"/>
    <linearGradient id="al" x1="84.2378" y1="114.0283" x2="84.9912" y2="125.3837" gradientUnits="userSpaceOnUse">
      <stop offset="0.0036" stop-color="#f36f56"/>
      <stop offset="1" stop-color="#ffc546"/>
    </linearGradient>
    <linearGradient id="am" x1="77.8183" y1="103.4519" x2="81.2136" y2="103.4519" xlink:href="#al"/>
    <linearGradient id="an" x1="73.0487" y1="103.999" x2="75.4335" y2="103.999" gradientTransform="matrix(1, 0, 0, 1, 0, 0)" xlink:href="#u"/>
    <linearGradient id="ao" x1="-110.1703" y1="694.5957" x2="-99.4686" y2="694.5957" gradientTransform="matrix(0.7019, -0.1685, 0.2334, 0.9724, -17.6956, -588.2546)" xlink:href="#u"/>
    <linearGradient id="ap" x1="68.891" y1="94.8792" x2="72.1143" y2="94.1055" gradientTransform="matrix(1, 0, 0, 1, 0, 0)" xlink:href="#u"/>
    <linearGradient id="aq" x1="71.5429" y1="99.1512" x2="74.1706" y2="98.5205" gradientTransform="matrix(1, 0, 0, 1, 0, 0)" xlink:href="#u"/>
    <linearGradient id="ar" x1="139.476" y1="83.917" x2="119.2782" y2="240.2863" gradientUnits="userSpaceOnUse">
      <stop offset="0" stop-color="#ffc546"/>
      <stop offset="0.0985" stop-color="#fdbc47"/>
      <stop offset="0.9964" stop-color="#f36f56"/>
    </linearGradient>
    <linearGradient id="as" x1="127.3825" y1="107.5769" x2="114.3446" y2="208.5153" xlink:href="#c"/>
  </defs>
  <g style="isolation: isolate">
    <g>
      <rect width="160" height="160" fill="none"/>
      <g>
        <path d="M67.605,149.6247C30.3937,143.9893.1532,108.8068,5.6472,69.7024c4.687-33.35,33.926-59.3033,68.9891-61.7542q3.8083-.2668,7.6992-.1577a76.6194,76.6194,0,0,1,49.7936,20.2282c12.7934,11.7825,21.1051,27.5421,22.6185,44.0758C158.7777,116.084,113.8876,156.634,67.605,149.6247Z" fill="#f4f7fa"/>
        <path d="M118.0549,69.2557l-4.7815-.3272a38.7816,38.7816,0,0,0-1.3853-6.677l4.2789-2.1232a2.4334,2.4334,0,0,0,1.0774-3.2749l-3.7821-7.5646a2.4406,2.4406,0,0,0-3.261-1.1089l-4.2662,2.117a38.3822,38.3822,0,0,0-4.4612-5.0859l2.615-3.9635a2.4349,2.4349,0,0,0-.69-3.3635l-6.9656-4.6386a2.4066,2.4066,0,0,0-3.3438.67l-2.6342,3.9794a38.1628,38.1628,0,0,0-6.3294-2.1371l.2994-4.7763a2.4121,2.4121,0,0,0-2.2493-2.56l-8.28-.531a2.4065,2.4065,0,0,0-2.5514,2.2487L71.0323,34.93A37.3749,37.3749,0,0,0,64.541,36.263l-2.1194-4.33a2.3852,2.3852,0,0,0-3.2061-1.09l-7.4263,3.6852a2.4254,2.4254,0,0,0-1.1009,3.2273l2.1239,4.3715a37.7907,37.7907,0,0,0-4.9655,4.38L43.834,43.791a2.3863,2.3863,0,0,0-3.323.6662l-4.6367,6.9407a2.4332,2.4332,0,0,0,.6374,3.36l4.0525,2.7569a38.9763,38.9763,0,0,0-2.1383,6.2923l-4.8982-.3351a2.4267,2.4267,0,0,0-2.5672,2.2628l-.6091,8.3974a2.4155,2.4155,0,0,0,2.22,2.604l4.917.3438A38.7476,38.7476,0,0,0,38.746,83.638l-4.4612,2.2138a2.4816,2.4816,0,0,0-1.1193,3.2826l3.6318,7.6392a2.3927,2.3927,0,0,0,3.229,1.1378l4.4742-2.22a38.3678,38.3678,0,0,0,4.32,5.1012l-2.7791,4.1984a2.511,2.511,0,0,0,.6522,3.4394l6.955,4.8075a2.396,2.396,0,0,0,3.3756-.6625l2.7765-4.2078a38.1889,38.1889,0,0,0,6.2959,2.2341l-.3306,5.067a2.4932,2.4932,0,0,0,2.2727,2.6655l8.42.6255a2.4366,2.4366,0,0,0,2.5968-2.3074l.3151-5.0245a37.3946,37.3946,0,0,0,6.5821-1.2871l2.2009,4.53a2.4488,2.4488,0,0,0,3.285,1.1576l7.5767-3.76a2.49,2.49,0,0,0,1.0959-3.3315l-2.1966-4.4879a37.7514,37.7514,0,0,0,5.0721-4.4681l4.076,2.773a2.4165,2.4165,0,0,0,3.3969-.6668l4.6476-7.11a2.5135,2.5135,0,0,0-.7061-3.443l-4.058-2.7457a38.9731,38.9731,0,0,0,2.1347-6.4655l4.83.3377a2.4165,2.4165,0,0,0,2.5806-2.2931l.47-8.4918A2.4894,2.4894,0,0,0,118.0549,69.2557ZM86.162,95.31a24.3991,24.3991,0,0,1-32.83-11.466A24.8187,24.8187,0,0,1,64.483,50.8543,24.4081,24.4081,0,0,1,97.1946,62.0775,24.808,24.808,0,0,1,86.162,95.31Z" fill="#d8dee8"/>
        <g>
          <g>
            <path d="M40.2694,73.5547l.0022.0025c.0616.0722.1253.1413.19.2084.0214.0221.0437.0429.0654.0644.0455.045.0915.0894.1384.1321.026.0235.0524.0461.0788.0689q.0675.0583.1367.1136c.0273.0216.0546.043.0822.0639.0485.0367.0977.0719.1473.1063.0259.0179.0516.0362.0777.0536.0593.0391.1194.0762.18.1122.0171.01.0339.0212.0512.0312q.12.0692.2442.1305l.0218.01q.1119.0545.2262.1024c.0216.009.0435.0172.0653.026.063.0252.1264.0493.19.0716.0245.0085.0491.0166.0737.0248q.0957.0315.1924.0586c.0229.0064.0457.0129.0687.0189q.1075.0284.2162.0512l.0458.01a4.6117,4.6117,0,0,0,.826.0893c.0131,0,.0263,0,.0394,0q.1185.0012.2369-.0037l.0472-.0022q.119-.0062.2375-.0184l.0372-.0037a4.6121,4.6121,0,0,0,3.0707-1.6634c7.1869-8.7695,22.81-29.0795,22.81-40.09,0-14.23-11.6515-26.08-26.2969-26.4757a27.5247,27.5247,0,0,0-4.1811.2049h0l-.0053.0008q-.8812.111-1.7445.2783l-.0512.01c-.1565.03-.3121.0633-.4675.0965-.05.0106-.1.0207-.15.0316-.1443.0317-.2879.0652-.4313.0991-.06.0142-.12.028-.1792.0425q-.2081.0508-.4146.1051-.0947.0246-.1891.05-.2037.0546-.4061.1125-.095.027-.1894.0549-.2028.06-.4046.122c-.06.0185-.1194.0377-.1791.0567-.1373.0437-.2744.0879-.4108.1338-.052.0175-.1036.0357-.1556.0535-.1435.0493-.287.0989-.43.15-.03.011-.0606.0227-.0909.0338q-1.0174.3727-1.9945.8237c-.0436.02-.0876.04-.1311.06-.1284.06-.2557.1218-.3829.1837-.0575.028-.1152.0557-.1723.084-.1212.06-.2413.1214-.3613.1833-.0617.0317-.1234.0634-.1847.0957q-.1758.0922-.35.1872c-.0631.0343-.1258.0688-.1886.1036q-.1716.0951-.3417.1926c-.0625.0359-.1245.0722-.1867.1085-.1134.0664-.2266.1331-.3389.2011-.0594.0359-.1183.0726-.1774.1089-.1141.07-.2282.1406-.3411.2126-.0522.0332-.1038.0673-.1557.1009-.1191.077-.2382.154-.356.2328-.0243.0162-.0481.0331-.0723.0494q-.6261.4223-1.2259.8787c-.0484.0368-.0974.073-.1456.11-.1014.0782-.2015.1579-.3017.2375-.06.0474-.1195.0943-.1787.1422-.0946.0765-.1883.1542-.2818.232-.0634.0527-.1267.1053-.1895.1585-.0906.0767-.18.1543-.27.2322q-.0962.0838-.1918.1685-.1309.1164-.2605.2345-.0963.0877-.1915.1766-.1272.1183-.253.238c-.0634.0605-.1261.1217-.1888.1828-.0825.0805-.1652.161-.2468.2426-.062.062-.1231.1249-.1845.1876-.0807.0824-.1617.1645-.2414.248-.06.0625-.1182.1262-.1773.1893-.08.0854-.16.17-.2389.2566-.04.0434-.0779.0877-.117.1312q-.2448.2724-.4818.5515c-.0608.0717-.1223.1428-.1824.2151-.0679.0816-.1342.1644-.201.2469-.062.0764-.1243.1526-.1854.23-.0653.0823-.1293.1655-.1934.2486-.0609.0788-.1218.1575-.1819.237-.0627.0831-.1244.1668-.1861.2507q-.09.1223-.1789.2455-.09.1251-.1781.2514t-.1751.2532c-.0574.0842-.1147.1686-.1711.2535-.0579.0869-.1148.1743-.1717.2619-.0545.084-.109.168-.1625.2527-.0573.0908-.1136.1824-.17.2739-.0509.083-.1022.1657-.1523.2493-.0591.0985-.1165.198-.1743.2974-.0452.0778-.0912.1552-.1357.2335-.07.1242-.1388.25-.2073.375-.0418.0767-.0838.1533-.125.23q-.1245.234-.2449.4706c-.0367.0726-.0719.146-.1079.219-.0554.1121-.1111.2242-.1649.3373-.0386.0813-.0759.1633-.1138.245-.0493.1063-.0985.2126-.1464.32-.0377.0847-.0744.17-.1114.2551-.0458.1056-.0913.2113-.1357.3176q-.0541.1294-.1065.26-.0648.16-.1276.3213-.0509.1306-.1.2619-.0615.1633-.1207.3279c-.0312.0867-.0624.1734-.0928.26-.04.1133-.0777.2271-.1156.341-.0282.0846-.0567.169-.084.254-.0388.1207-.0759.2422-.113.3637-.024.079-.0488.1576-.0721.2368-.0422.1432-.0822.2872-.1219.4314-.016.0584-.0332.1164-.0489.1749q-.0813.3036-.1553.61c-.0126.0524-.0238.1053-.0361.1577-.0361.1533-.0715.3068-.1047.4611-.0168.0782-.0321.1569-.0482.2353-.0267.13-.0531.2594-.0779.39-.0162.0859-.0312.1723-.0466.2585-.0221.1242-.044.2484-.0644.3732-.0146.0894-.0283.1791-.0419.2687q-.0281.1841-.0538.3688-.0189.1371-.0361.2746-.0234.1845-.0441.37c-.01.0916-.02.1832-.0295.2751-.0127.1257-.0241.2518-.035.3781-.0078.09-.0158.18-.0226.27-.01.1314-.0181.2632-.0261.395-.0051.0858-.0109.1715-.0153.2575-.0074.1453-.0124.2913-.0173.4373-.0025.0728-.006.1454-.0078.2184q-.0083.3286-.0087.6593a13.7362,13.7362,0,0,0,.1072,1.6689c.6732,5.4918,4.4267,12.6582,8.9352,19.5508q.4059.6208.8194,1.238.3945.5889.7942,1.1738.7283,1.0644,1.47,2.11.4931.6959.9887,1.3809.35.4839.7.9608.29.3948.5788.7849.35.4722.6989.9376.9842,1.311,1.9482,2.5532.3435.4429.6817.8742C36.48,69.0387,38.6065,71.6025,40.2694,73.5547Z" fill="url(#a)"/>
            <path d="M43.7729,80.8909a5.6174,5.6174,0,0,0-5.4981,5.5268,5.2359,5.2359,0,0,0,5.4981,5.2059,5.6189,5.6189,0,0,0,5.4557-5.5256A5.2362,5.2362,0,0,0,43.7729,80.8909Z" fill="url(#b)"/>
          </g>
          <g>
            <g>
              <g>
                <path d="M72.3117,33.343c0,10.9924-15.573,31.2693-22.7363,40.0242a4.5586,4.5586,0,0,1-6.967.14C35.3,64.9124,18.8783,44.31,18.8783,32.8933A26.1921,26.1921,0,0,1,46.1005,6.9112C60.6979,7.3051,72.3117,19.1357,72.3117,33.343Z" fill="url(#c)"/>
                <path d="M64.2012,32.673A18.2036,18.2036,0,0,1,45.88,50.7257,18.5842,18.5842,0,0,1,27.07,32.3445,18.1931,18.1931,0,0,1,45.88,14.2963,18.5981,18.5981,0,0,1,64.2012,32.673Z" fill="#fff"/>
                <g opacity="0.2" style="mix-blend-mode: multiply">
                  <path d="M45.9825,62.6768c1.6927-10.96,9.0067-14.4785,7.7567-24.76C52.2949,26.0358,41.5484,22.7042,41.2871,12.05a16.3974,16.3974,0,0,1,.6459-4.934A26.0947,26.0947,0,0,0,18.8783,32.8933c0,11.4165,16.4212,32.0191,23.73,40.6143A4.4636,4.4636,0,0,0,46.7845,74.99,29.3284,29.3284,0,0,1,45.9825,62.6768Z" fill="url(#d)"/>
                </g>
              </g>
              <path d="M51.5383,86.0306a5.6048,5.6048,0,0,1-5.4378,5.5162,5.2227,5.2227,0,0,1-5.48-5.1976,5.6033,5.6033,0,0,1,5.48-5.5174A5.2233,5.2233,0,0,1,51.5383,86.0306Z" fill="url(#e)"/>
            </g>
            <g clip-path="url(#f)">
              <g>
                <g>
                  <path d="M43.7082,31.6793c0,3.7811-2.0984,6.8366-4.6954,6.8247-2.6066-.0119-4.7267-3.1072-4.7267-6.9134s2.12-6.8616,4.7267-6.8244C41.61,24.8032,43.7082,27.8983,43.7082,31.6793Z" fill="url(#g)"/>
                  <path d="M40.1029,37.258l-2.1865-.0119c-.1915,7.6458-.383,15.4324-.5747,23.27a1.4327,1.4327,0,0,0,.5019,1.1221,1.7162,1.7162,0,0,0,1.2629.4454,1.6429,1.6429,0,0,0,1.1266-.5071,1.0877,1.0877,0,0,0,.4469-.8949C40.4877,52.802,40.2954,44.8921,40.1029,37.258Z" fill="url(#h)"/>
                </g>
                <g>
                  <path d="M56.789,25.2957l-1.1673-.0081V33.38l-.9172-.0078v-8.09l-.9172-.0062v8.0886l-1.651-.0126V25.2524l-.9172-.0206v8.1116l-1.4676-.0127V25.203l-.6656-.0161a89.1813,89.1813,0,0,0-.7679,10.8973,1.7126,1.7126,0,0,0,.6568,1.1325A6.2515,6.2515,0,0,0,53.1,38.5685a6.0382,6.0382,0,0,0,4.0525-1.3066,1.5382,1.5382,0,0,0,.5349-1.1183A81.3856,81.3856,0,0,0,56.789,25.2957Z" fill="url(#i)"/>
                  <path d="M54.1762,37.3349l-2.1433-.0117c-.1878,7.57-.3755,15.2789-.5633,23.0383a1.4246,1.4246,0,0,0,.4919,1.111,1.6727,1.6727,0,0,0,1.2379.4411,1.6028,1.6028,0,0,0,1.1043-.502,1.08,1.08,0,0,0,.4381-.8859C54.5534,52.7246,54.3648,44.8932,54.1762,37.3349Z" fill="url(#j)"/>
                </g>
              </g>
            </g>
          </g>
        </g>
        <g>
          <g>
            <g>
              <path d="M89.0155,27.6988Q82.3582,83.9649,75.7008,139.0567a2.8431,2.8431,0,0,0,2.53,3.2386q26.7557,2.538,53.5114,5.1878c3.1818.1544,4.929-1.6236,5.1338-3.4036q6.8526-59.472,13.7049-120.1891c.2049-1.818-1.3352-3.3806-4.517-3.2253q-26.8875,1.917-53.7749,3.7834A3.76,3.76,0,0,0,89.0155,27.6988Z" fill="#26274f"/>
              <path d="M86.5382,27.622Q79.8389,84.1333,73.14,139.4557a2.8584,2.8584,0,0,0,2.546,3.2536q27.7823,2.3527,55.5647,4.799a3.2953,3.2953,0,0,0,3.45-2.9771q6.8955-59.7446,13.7912-120.7488a2.6057,2.6057,0,0,0-2.7207-3.1118q-27.9692,1.8657-55.9383,3.6867A3.7812,3.7812,0,0,0,86.5382,27.622Z" fill="#40403f"/>
              <path d="M87.6143,33.7854q-6.2051,52.3575-12.41,103.694a2.6613,2.6613,0,0,0,2.3792,3.0345q26.1278,2.1369,52.2556,4.355a3.0826,3.0826,0,0,0,3.2129-2.78q6.3759-55.1824,12.7516-111.4426a2.4468,2.4468,0,0,0-2.5318-2.9163q-26.2905,1.5307-52.5811,3.0295A3.4946,3.4946,0,0,0,87.6143,33.7854Z" fill="#f8aa95"/>
              <path d="M90.6906,30.76q25.9791-1.4806,51.9582-2.9935a39.7112,39.7112,0,0,1-3.0429,9.8435C133.861,50.0731,125.4214,50.76,122.12,61.6206c-3.4017,11.19,4.27,14.6915.522,24.7942-4.067,10.9626-14.0415,9.376-19.3133,21.4013-4.544,10.3647,1.3057,15.1026-3.3929,21.4012-5.15,6.9038-14.6775,4.5631-24.5669,6.9014q6.123-50.6706,12.2459-102.3332A3.4944,3.4944,0,0,1,90.6906,30.76Z" fill="#f4f7fa" opacity="0.4" style="mix-blend-mode: soft-light"/>
            </g>
            <path d="M115.9878,26.1586a.8715.8715,0,0,0,.9112,1.0384,1.3328,1.3328,0,0,0,1.1673-1.1664.8692.8692,0,0,0-.9121-1.0377A1.3335,1.3335,0,0,0,115.9878,26.1586Z" fill="#cc8fbf"/>
          </g>
          <g>
            <g opacity="0.4" style="mix-blend-mode: multiply">
              <g>
                <path d="M95.6112,77.24c1.3,2.8137,5.7007,5.02,11.1887,5.1465l6.4285.1485c5.625.13,10.6269-1.918,12.5339-4.7522a.524.524,0,0,0-.1292-.7057,1.7176,1.7176,0,0,0-1.0322-.3673L96.8882,76.24a1.81,1.81,0,0,0-1.0337.3216A.5653.5653,0,0,0,95.6112,77.24Z" fill="url(#k)"/>
                <path d="M97.0046,64.5071a13.5562,13.5562,0,0,1,12.3347-7.7317l6.4038-.0212c5.6029-.0184,10.1105,3.2521,11.36,7.8948a.9127.9127,0,0,1-.2709.9322,1.3692,1.3692,0,0,1-1.0924.3544l-27.6752-.1667a1.0933,1.0933,0,0,1-.9672-.3557A.8323.8323,0,0,1,97.0046,64.5071Z" fill="url(#l)"/>
                <path d="M126.8481,69.0618a1.5978,1.5978,0,0,1-1.6507,1.4027l-27.1239-.2877a1.26,1.26,0,0,1-1.31-1.3909h0a1.5437,1.5437,0,0,1,1.57-1.3636l27.1114.21a1.3269,1.3269,0,0,1,1.4038,1.43Z" fill="url(#m)"/>
                <path d="M121.3584,74.7a3.4166,3.4166,0,0,1-2.6764-1.3327,2.5282,2.5282,0,0,0-1.9983-1.0442,2.9831,2.9831,0,0,0-2.1705.9874,3.9634,3.9634,0,0,1-2.8669,1.2443,3.3265,3.3265,0,0,1-2.6193-1.3191,2.4609,2.4609,0,0,0-1.9553-1.0336,2.923,2.923,0,0,0-2.1313.9778,3.8845,3.8845,0,0,1-2.8154,1.2326,3.24,3.24,0,0,1-2.5642-1.3059,2.3981,2.3981,0,0,0-1.9142-1.0233.4281.4281,0,0,1-.4284-.476.5217.5217,0,0,1,.5171-.4644,3.215,3.215,0,0,1,2.5519,1.2963,2.4161,2.4161,0,0,0,1.9258,1.0271,2.9054,2.9054,0,0,0,2.1206-.9747,3.9111,3.9111,0,0,1,2.8253-1.2393,3.3007,3.3007,0,0,1,2.6066,1.31,2.48,2.48,0,0,0,1.9674,1.0375,2.9638,2.9638,0,0,0,2.1593-.9841,3.9909,3.9909,0,0,1,2.8772-1.2512,3.39,3.39,0,0,1,2.6632,1.3228,2.5484,2.5484,0,0,0,2.0108,1.0481,3.0244,3.0244,0,0,0,2.2-.9937,4.0743,4.0743,0,0,1,2.9309-1.2634.4518.4518,0,0,1,.46.49.5406.5406,0,0,1-.5441.4783,3.0442,3.0442,0,0,0-2.211.997A4.0462,4.0462,0,0,1,121.3584,74.7Z" fill="url(#n)"/>
              </g>
              <path d="M129.5276,120.3727a2.6857,2.6857,0,0,1-2.8912,2.3661l-38.794-2.46a2.3524,2.3524,0,0,1-2.224-2.5776l.1092-1.1355a2.56,2.56,0,0,1,2.6874-2.2774L127.1706,116.5a2.5264,2.5264,0,0,1,2.458,2.6835Z" fill="url(#o)"/>
              <path d="M131.6251,95.679a2.4353,2.4353,0,0,0-2.45-2.59L90.5644,91.8012A2.6135,2.6135,0,0,0,87.8882,94.11L86.622,107.27a2.3126,2.3126,0,0,0,2.2213,2.5374l38.7269,2.027a2.711,2.711,0,0,0,2.8849-2.3818Zm-16.43,1.7225-6.2092,9.8683a1.5422,1.5422,0,0,1-1.3215.7158l-.0515-.0017a1.3963,1.3963,0,0,1-1.1861-.7511l-3.7436-7.3577a1.4431,1.4431,0,0,1,.6715-1.9136,1.4213,1.4213,0,0,1,1.9377.561l2.6109,5.1027,4.783-7.6135a1.5521,1.5521,0,0,1,2.0343-.55A1.3574,1.3574,0,0,1,115.1949,97.4015Z" fill="url(#p)"/>
            </g>
            <g>
              <g>
                <path d="M95.0291,77.24c1.3,2.8137,5.7007,5.02,11.1887,5.1465l6.4285.1485c5.625.13,10.6269-1.918,12.5339-4.7522a.524.524,0,0,0-.1292-.7057,1.7176,1.7176,0,0,0-1.0322-.3673L96.306,76.24a1.81,1.81,0,0,0-1.0336.3216A.5652.5652,0,0,0,95.0291,77.24Z" fill="#fff"/>
                <path d="M96.4225,64.5071a13.5562,13.5562,0,0,1,12.3347-7.7317l6.4038-.0212c5.6029-.0184,10.1105,3.2521,11.36,7.8948a.9126.9126,0,0,1-.2708.9322,1.3693,1.3693,0,0,1-1.0925.3544l-27.6751-.1667a1.0933,1.0933,0,0,1-.9672-.3557A.8323.8323,0,0,1,96.4225,64.5071Z" fill="#fff"/>
                <path d="M126.266,69.0618a1.5978,1.5978,0,0,1-1.6507,1.4027l-27.1239-.2877a1.26,1.26,0,0,1-1.31-1.3909h0a1.5437,1.5437,0,0,1,1.57-1.3636l27.1114.21a1.3269,1.3269,0,0,1,1.4038,1.43Z" fill="#fff"/>
                <path d="M120.7763,74.7A3.4166,3.4166,0,0,1,118.1,73.3672a2.5282,2.5282,0,0,0-1.9983-1.0442,2.983,2.983,0,0,0-2.1705.9874,3.9634,3.9634,0,0,1-2.8669,1.2443,3.3265,3.3265,0,0,1-2.6193-1.3191A2.4609,2.4609,0,0,0,106.49,72.202a2.923,2.923,0,0,0-2.1313.9778,3.8845,3.8845,0,0,1-2.8154,1.2326,3.24,3.24,0,0,1-2.5642-1.3059,2.3981,2.3981,0,0,0-1.9142-1.0233.4281.4281,0,0,1-.4284-.476.5217.5217,0,0,1,.5171-.4644,3.215,3.215,0,0,1,2.5519,1.2963,2.4161,2.4161,0,0,0,1.9258,1.0271,2.9054,2.9054,0,0,0,2.1206-.9747,3.9111,3.9111,0,0,1,2.8253-1.2393,3.3007,3.3007,0,0,1,2.6066,1.31,2.48,2.48,0,0,0,1.9674,1.0375,2.9638,2.9638,0,0,0,2.1593-.9841,3.9909,3.9909,0,0,1,2.8772-1.2512,3.39,3.39,0,0,1,2.6632,1.3228,2.5484,2.5484,0,0,0,2.0108,1.0481,3.0244,3.0244,0,0,0,2.2-.9937,4.0743,4.0743,0,0,1,2.9309-1.2634.4518.4518,0,0,1,.46.49.5406.5406,0,0,1-.5441.4783,3.0442,3.0442,0,0,0-2.211.997A4.0462,4.0462,0,0,1,120.7763,74.7Z" fill="#fff"/>
              </g>
              <path d="M128.9455,120.3727a2.6857,2.6857,0,0,1-2.8912,2.3661l-38.794-2.46a2.3524,2.3524,0,0,1-2.224-2.5776l.1092-1.1355a2.56,2.56,0,0,1,2.6874-2.2774L126.5885,116.5a2.5263,2.5263,0,0,1,2.4579,2.6835Z" fill="#fff"/>
              <path d="M131.043,95.679a2.4353,2.4353,0,0,0-2.45-2.59L89.9823,91.8012A2.6135,2.6135,0,0,0,87.3061,94.11L86.04,107.27a2.3126,2.3126,0,0,0,2.2213,2.5374l38.7268,2.027a2.711,2.711,0,0,0,2.885-2.3818Zm-16.43,1.7225-6.2092,9.8683a1.5424,1.5424,0,0,1-1.3215.7158l-.0515-.0017a1.3963,1.3963,0,0,1-1.1861-.7511l-3.7436-7.3577a1.4431,1.4431,0,0,1,.6715-1.9136,1.4213,1.4213,0,0,1,1.9377.561l2.6109,5.1027,4.783-7.6135a1.5521,1.5521,0,0,1,2.0343-.55A1.3574,1.3574,0,0,1,114.6128,97.4015Z" fill="#fff"/>
            </g>
          </g>
        </g>
        <g>
          <g>
            <path d="M76.5242,109.1985l-2.246-2.77-2.2512,2.0582a2.9259,2.9259,0,0,0-.4094,3.8562l.9958,1.3988,3.4485-1.427.6695-1.9417A1.2285,1.2285,0,0,0,76.5242,109.1985Z" fill="url(#q)"/>
            <path d="M81.2716,103.5506c0,2.4669-.6789,4.5518-2.6132,5.2363a4.4777,4.4777,0,0,1-1.5054.2372,5.4736,5.4736,0,1,1-.1278-10.9455c.0425-.0015.0852-.0015.1278-.0015C80.2518,98.0771,81.2716,100.527,81.2716,103.5506Z" fill="url(#r)"/>
            <g>
              <circle cx="30.161" cy="143.5296" r="9.6321" fill="url(#s)"/>
              <circle cx="30.161" cy="143.5296" r="6.6467" fill="#fff"/>
            </g>
            <circle cx="30.0718" cy="143.7377" r="3.1215" opacity="0.6" fill="url(#t)" style="mix-blend-mode: multiply"/>
            <path d="M20.6807,128.2278c-.0734.1574-.2052.2513-.2945.21l-11.804-5.4969c-.0893-.0416-.1022-.2029-.0289-.36h0c.0733-.1575.2051-.2514.2944-.21l11.804,5.4968c.0893.0416.1023.203.029.36Z" fill="url(#u)"/>
            <g>
              <rect x="38.0112" y="121.2426" width="18.7111" height="2.9351" fill="url(#v)"/>
              <rect x="36.9105" y="118.3076" width="21.2793" height="3.6688" rx="1.7463" fill="url(#w)"/>
            </g>
            <path d="M21.5551,136.331a7.7446,7.7446,0,0,0-5.13,7.2164.4661.4661,0,0,0,.096.2909c.0627.0637.1484.1512.2378.1512H18.581a1.1024,1.1024,0,0,0,.6185-.2548l8.5237-6.3034Z" fill="url(#x)"/>
            <path d="M45.1418,141.5975c-.6473-.097-10.94.0767-14.71.1442a1.43,1.43,0,0,0-1.41,1.4v.5723a1.4312,1.4312,0,0,0,1.2678,1.3908l18.3527,2.203Z" fill="url(#y)"/>
            <g>
              <circle cx="91.164" cy="143.5296" r="9.6321" fill="url(#z)"/>
              <circle cx="91.164" cy="143.5296" r="6.6467" fill="#fff"/>
            </g>
            <circle cx="91.0748" cy="143.7377" r="3.1215" opacity="0.6" fill="url(#aa)" style="mix-blend-mode: multiply"/>
            <rect x="84.921" y="131.0436" width="4.4593" height="16.2318" rx="2.1405" transform="translate(-71.6339 97.3494) rotate(-43.1907)" fill="url(#ab)"/>
            <path d="M100.2927,136.4747c-1.2046-3.945-5.4454-7.3284-10.734-7.3284-5.6484,0-9.5132,5.607-9.5132,5.607l-.5351,6.9926,4.6939-.6259a5.264,5.264,0,0,0,2.7345-1.2249l2.4956-2.0946a1.8781,1.8781,0,0,1,1.2531-.4149h9.0042a.6814.6814,0,0,0,.505-.304A.736.736,0,0,0,100.2927,136.4747Z" fill="url(#ac)"/>
            <path d="M89.2019,125.6479c.0892,2.3634-7.3132,15.8831-8.3834,16.329s-4.2809,5.3146-10.078,5.3146H49.6712a3.5541,3.5541,0,0,1-3.0537-1.59c-1.6891-2.64-5.1263-7.4921-7.7163-8.0093-2.9824-.5958-17.8015-2.2326-22.5872-2.7588a1.66,1.66,0,0,1-1.5072-1.7407c.1623-2.8771,1.3931-8.6479,8.5761-10.2989H56.5546c.4959,0,.7181.3463.7181.8421v1.0988a2.4989,2.4989,0,0,1-.6043,1.7588c-1.7819,1.91-6.2036,7.0706-4.2558,8.8507,2.4081,2.1993,3.7682,6.57,9.1194,6.57a24.3711,24.3711,0,0,0,9.5843-1.7356,4.7115,4.7115,0,0,0,2.8293-2.7237c.8027-3.0324-2.0485-21.2012-2.3161-24.1123-.148-1.6142,1.184-2.7166,2.4006-3.3784l.0024-.0017a2.54,2.54,0,0,1,3.079.5065C80.3668,114.0858,89.1288,123.7232,89.2019,125.6479Z" fill="url(#ad)"/>
            <path d="M77.5489,135.4458a71.58,71.58,0,0,1-6.1841,5.6437l-.2373-.8116a4.7,4.7,0,0,0,2.8237-2.7237c.8026-3.0324-2.0513-21.2012-2.3189-24.1123-.148-1.6142,1.1826-2.7166,2.3992-3.3784-.0786.07-1.9247,1.757.0017,6.4125C76.0024,121.2332,80.9968,131.9408,77.5489,135.4458Z" fill="url(#ae)"/>
            <path d="M71.9481,140.5958a1.3759,1.3759,0,0,1-1.3758,1.3759H56.8141a1.3758,1.3758,0,0,1-1.3758-1.3759h0a1.3758,1.3758,0,0,1,1.3758-1.3758H70.5723a1.3758,1.3758,0,0,1,1.3758,1.3758Z" fill="url(#af)"/>
            <path d="M45.9931,141.8451s1.8732-14.5488-8.4362-15.2826H22.8478s-9.0375,3.35-8.6808,11.1983C34.1446,140.02,45.9931,141.8451,45.9931,141.8451Z" fill="url(#ag)"/>
            <path d="M14.612,137.91c1.7883-5.4807,8.2358-7.8616,8.2358-7.8616H37.557c6.6347.7338,8.2234,6.8144,8.5132,11.1594.21-3.1184.2757-13.911-8.5132-14.4614H22.8478s-9.0375,3.3269-8.6808,11.1753C14.3163,137.938,14.4637,137.8926,14.612,137.91Z" fill="url(#ah)"/>
            <path d="M8.752,94.46H32.7831a3.3937,3.3937,0,0,1,3.3937,3.3937v20.5457a3.3936,3.3936,0,0,1-3.3936,3.3936H8.7521a3.3937,3.3937,0,0,1-3.3937-3.3937V97.8536A3.3936,3.3936,0,0,1,8.752,94.46Z" fill="url(#ai)"/>
            <path d="M34.3423,122.2516a.642.642,0,0,1-.642.642H7.6514a.642.642,0,0,1-.642-.642h0a.6421.6421,0,0,1,.642-.6421H33.7a.642.642,0,0,1,.642.6421Z" fill="url(#aj)"/>
            <path d="M36.1768,99.9633a.3669.3669,0,0,1-.3669.3669H5.7253a.3669.3669,0,0,1-.3669-.3669h0a.3669.3669,0,0,1,.3669-.3669H35.81a.3669.3669,0,0,1,.3669.3669Z" fill="url(#ak)"/>
            <path d="M86.0732,125.0032a1.1924,1.1924,0,0,1-1.1924,1.1924h0a1.1924,1.1924,0,0,1-1.1924-1.1924V122.435a1.1925,1.1925,0,0,1,1.1924-1.1924h0a1.1925,1.1925,0,0,1,1.1924,1.1924Z" fill="url(#al)"/>
            <path d="M77.8183,98.1353V108.729a4.8506,4.8506,0,0,0,.7463.04h.0938c1.9343-.55,2.5552-2.76,2.5552-5.2272C81.2136,100.788,80.7533,98.52,77.8183,98.1353Z" fill="url(#am)"/>
            <path d="M78.1851,109.3189a.55.55,0,0,1-.55.55h0a.55.55,0,0,1-.55-.55V97.762a.55.55,0,0,1,.55-.55h0a.55.55,0,0,1,.55.55Z" fill="#fff"/>
            <g>
              <path d="M75.4335,104.4576a1.1923,1.1923,0,0,1-1.1924,1.1924h0a1.1924,1.1924,0,0,1-1.1924-1.1924V103.54a1.1924,1.1924,0,0,1,1.1924-1.1923h0a1.1923,1.1923,0,0,1,1.1924,1.1923Z" fill="url(#an)"/>
              <path d="M74.6061,103.9309a1.1184,1.1184,0,0,1-.585,1.4244l-5.7589,1.3823c-.484.1161-1.0068-.3333-1.1678-1.0038h0a1.1185,1.1185,0,0,1,.585-1.4245l5.7589-1.3822c.484-.1162,1.0068.3332,1.1678,1.0038Z" fill="url(#ao)"/>
            </g>
            <g>
              <ellipse cx="70.5027" cy="94.4923" rx="1.5459" ry="2.9877" fill="url(#ap)"/>
              <path d="M74.2411,101.6123c-.0985,0-.0917-.08-.0917-.1783V99.2816c-.3669-.3623-2.7809-2.4682-3.171-2.7944-.0756-.0632-.1574-.1757-.0942-.2513a.1382.1382,0,0,1,.2153-.0224c.4326.3618,3.0292,2.7588,3.1379,2.8607.036.0337.0954.0808.0954.13v2.23C74.3328,101.5325,74.34,101.6123,74.2411,101.6123Z" fill="url(#aq)"/>
            </g>
          </g>
          <g>
            <g>
              <path d="M13.5511,113.3622c.7363,1.3555,2.8876,2.3772,5.4285,2.3772h2.94c2.5409,0,4.6922-1.0217,5.4285-2.3772A.3083.3083,0,0,0,27.2635,113a.799.799,0,0,0-.4722-.1954H14.1077a.799.799,0,0,0-.4722.1954A.3084.3084,0,0,0,13.5511,113.3622Z" fill="#fff"/>
              <path d="M13.64,107.09a5.6925,5.6925,0,0,1,5.4284-3.8242h2.94A5.6927,5.6927,0,0,1,27.437,107.09a.4027.4027,0,0,1-.0844.4254.5366.5366,0,0,1-.4722.153H14.1967a.5367.5367,0,0,1-.4721-.1529A.4029.4029,0,0,1,13.64,107.09Z" fill="#fff"/>
              <path d="M27.4937,109.2272a.6415.6415,0,0,1-.6792.642H14.3963a.6415.6415,0,0,1-.6791-.642h0a.6415.6415,0,0,1,.6791-.6421H26.8145a.6415.6415,0,0,1,.6792.6421Z" fill="#fff"/>
              <path d="M25.2672,111.9353a1.6336,1.6336,0,0,1-1.2541-.6162,1.1586,1.1586,0,0,0-1.887,0,1.5841,1.5841,0,0,1-2.508,0,1.1583,1.1583,0,0,0-1.8867,0,1.5841,1.5841,0,0,1-2.508,0,1.2212,1.2212,0,0,0-.9434-.4862.23.23,0,0,1,0-.4594,1.6336,1.6336,0,0,1,1.254.6163,1.1583,1.1583,0,0,0,1.8867,0,1.5839,1.5839,0,0,1,2.508,0,1.1584,1.1584,0,0,0,1.8868,0,1.584,1.584,0,0,1,2.5081,0,1.1588,1.1588,0,0,0,1.8872,0,1.6338,1.6338,0,0,1,1.2542-.6163.23.23,0,0,1,0,.4594,1.2214,1.2214,0,0,0-.9436.4862A1.6338,1.6338,0,0,1,25.2672,111.9353Z" fill="#fff"/>
            </g>
            <path d="M29.0225,117.7572a.55.55,0,0,1-.55.55H12.5127a.55.55,0,0,1-.55-.55h0a.55.55,0,0,1,.55-.55h15.96a.55.55,0,0,1,.55.55Z" fill="#fff"/>
          </g>
        </g>
        <g>
          <g>
            <path d="M129.8414,149.7636c7.8444-1.0078,17.79-3.6559,21.7848-11.123.95-1.7764,1.9039-5.2273-.4946-6.5268-2.1924-1.1878-5.0277.0668-6.6573,1.6126-1.1981,1.1365-2.1331,3.6732-3.4793,4.4753-1.97,1.1741-3.0311-2.0294-2.99-3.3514.0927-2.9559,3.7286-4.166,6.1451-4.8078,4.011-1.0654,8.6811-1.9786,8.43-6.4987s-4.6584-7.2313-8.0488-5.254c-2.7934,1.63-2.4,5.1073-4.3088,7.1939-1.6957,1.8538-2.2858-1.1551-2.1726-2.63.246-3.2042,3.0633-5.5218,5.1363-7.6689,2.3437-2.4276,4.9331-7.3119,2.4349-10.5217-1.4376-1.8471-5.09-2.28-7.2482-1.9681-10.5658,1.5255-3.56,15.1989-5.4806,16.7244s-3.7387-1.145-3.7339-5.2056-.6167-7.0552-4.8544-5.7557-5.0442,11.9059-.2055,15.982-.3038,8.5232-1.6027,5.6021c-.9378-2.1093-1.7623-7.6329-4.4726-8.2387-4.5161-1.0076-4.4492,8.2138-3.1495,10.36,1.822,3.0085,5.9417,3.6621,8.2424,6.2578.6683.754,2.1773,2.6216,1.5911,3.7238-.8175,1.5372-3.0984-.1073-3.9363-.82-1.884-1.6017-4.4916-7.045-7.1456-3.43C110.3484,142.3588,115.829,148.9758,129.8414,149.7636Z" fill="url(#ar)"/>
            <g opacity="0.8" style="mix-blend-mode: soft-light">
              <path d="M130.9713,148.9425a.3263.3263,0,0,1-.3388-.3176,108.6668,108.6668,0,0,1,6.8008-35.3569.3376.3376,0,0,1,.4352-.1976.341.341,0,0,1,.2014.4369,107.8763,107.8763,0,0,0-6.76,35.1039.3249.3249,0,0,1-.3325.3313Z" fill="#fff"/>
            </g>
          </g>
          <path d="M133.8563,142.8843c-1.2716-1.0819-3.9731.61-5.0945,1.2538-.65.3733-1.54.946-2.3229.6136-.8219-.349-.7641-1.2118-.2671-1.8231.89-1.0946,2.5973-1.3953,3.838-1.9288a5.9157,5.9157,0,0,0,3.2141-2.6985,4.34,4.34,0,0,0,.0538-3.7145c-1.6327-2.9235-4.01-.6421-5.3385,1.1017-.6449.8461-2.0892,2.3037-3.184,1.306-1.1647-1.0614-.1653-2.9539.7383-3.7883A43.3535,43.3535,0,0,1,129.39,130.41c1.16-.8548,2.35-2.0794,1.5785-3.5948a3.5916,3.5916,0,0,0-3.379-1.7194c-2.9633.2294-3.4251,4.5559-5.3766,6.2171-.69.5873-2.2585,1.0543-3.0815.478-.8376-.5878-.2932-1.932.0082-2.6655.8934-2.1742,7.3038-9.4633,1.991-10.3785a5.87,5.87,0,0,0-4.2306,1.0407c-1.9822,1.6038-3.0341,4.78-3.5562,7.1908a26.9187,26.9187,0,0,0,.142,11.7744c2.0262,8.3343,6.7882,11.0112,6.7882,11.0112a13.7971,13.7971,0,0,0,6.77.56,10.7175,10.7175,0,0,0,6.7525-4.7069C134.1977,144.867,134.644,143.5545,133.8563,142.8843Z" fill="url(#as)"/>
        </g>
      </g>
    </g>
  </g>
</svg>
